<?xml version="1.0" standalone="no"?>
<!DOCTYPE svg PUBLIC "-//W3C//DTD SVG 20010904//EN"
 "http://www.w3.org/TR/2001/REC-SVG-20010904/DTD/svg10.dtd">
<svg version="1.0" xmlns="http://www.w3.org/2000/svg"
 width="300.000000pt" height="300.000000pt" viewBox="0 0 300.000000 300.000000"
 preserveAspectRatio="xMidYMid meet">
<metadata>
Created by potrace 1.10, written by Peter Selinger 2001-2011
</metadata>
<g transform="translate(0.000000,300.000000) scale(0.100000,-0.100000)"
fill="#000000" stroke="none">
<path d="M164 2988 c3 -7 7 -62 10 -121 6 -116 14 -262 21 -367 2 -36 4 -73 5
-82 0 -13 8 -18 31 -18 22 0 28 3 22 13 -9 14 -10 19 -12 53 0 14 -5 22 -11
19 -6 -3 -10 3 -10 14 0 10 4 21 9 23 6 2 6 49 1 118 -5 63 -10 138 -11 165
-1 28 -4 54 -7 59 -3 5 -6 37 -6 70 -1 55 -3 61 -23 64 -15 2 -22 -1 -19 -10z"/>
<path d="M348 2993 c7 -3 16 -2 19 1 4 3 -2 6 -13 5 -11 0 -14 -3 -6 -6z"/>
<path d="M500 2992 c0 -4 16 -8 35 -9 19 -1 33 2 31 6 -6 10 -66 13 -66 3z"/>
<path d="M620 2988 c0 -5 15 -8 33 -8 17 0 49 -3 70 -6 23 -4 37 -3 37 4 0 6
-30 12 -70 14 -39 2 -70 0 -70 -4z"/>
<path d="M790 2986 c0 -18 8 -20 30 -6 9 6 17 5 23 -3 6 -8 7 -8 4 3 -5 21
-57 26 -57 6z"/>
<path d="M976 2987 c3 -9 16 -12 34 -9 37 5 29 22 -10 22 -20 0 -28 -4 -24
-13z"/>
<path d="M1151 2984 c0 -11 3 -14 6 -6 3 7 2 16 -1 19 -3 4 -6 -2 -5 -13z"/>
<path d="M1354 2971 c0 -14 -1 -38 -2 -53 l-2 -28 -104 1 c-57 1 -109 -1 -114
-5 -6 -3 -18 1 -26 10 -9 8 -16 12 -16 7 0 -5 -15 -7 -34 -5 -26 3 -33 8 -29
19 5 12 1 14 -14 9 -12 -4 -28 1 -43 14 -27 24 -42 26 -34 5 3 -8 9 -14 12
-13 4 1 21 -5 37 -15 30 -16 29 -16 -67 -17 -80 0 -96 3 -92 14 4 11 -1 13
-28 7 -39 -8 -68 -4 -68 11 0 6 -8 1 -19 -10 -21 -25 -36 -29 -27 -7 3 8 4 15
3 15 -1 0 -17 -4 -35 -9 -27 -8 -34 -7 -47 12 l-15 21 0 -22 c0 -27 -36 -31
-55 -5 -10 13 -18 14 -41 6 -43 -14 -79 -2 -78 27 1 19 -1 20 -10 8 -14 -19
-42 -29 -61 -22 -12 5 -13 10 -4 20 7 9 8 14 1 14 -5 0 -12 -6 -15 -14 -3 -9
-15 -12 -31 -9 -19 4 -26 1 -26 -11 0 -11 -9 -16 -26 -16 -14 0 -23 -4 -19
-10 8 -12 45 -13 45 -1 0 13 30 22 43 14 6 -4 30 -8 52 -9 65 -3 66 -4 62 -11
-3 -5 14 -9 36 -9 23 -1 69 -4 102 -7 224 -22 566 -27 1110 -16 259 5 660 13
893 18 377 7 446 11 431 25 -8 7 -125 16 -217 17 l-92 1 -1 31 c-1 20 -3 24
-6 12 -2 -11 -6 -30 -8 -41 -4 -20 -11 -21 -77 -19 -40 1 -78 -2 -84 -7 -6 -4
-19 -5 -28 -2 -13 5 -15 15 -12 45 6 52 -8 50 -20 -3 l-9 -42 -58 0 c-31 -1
-57 3 -57 7 0 5 -5 5 -11 1 -16 -10 -139 -12 -139 -2 0 4 7 8 15 8 8 0 15 5
15 10 0 19 -42 10 -47 -10 -5 -17 -13 -20 -44 -18 -21 1 -42 -1 -45 -5 -16
-16 -32 15 -27 53 3 22 1 40 -4 40 -5 0 -9 -12 -10 -27 -1 -56 -3 -63 -18 -63
-8 0 -15 5 -15 10 0 6 -8 5 -20 -2 -25 -16 -32 -8 -32 36 0 20 -4 39 -9 42 -5
3 -9 2 -8 -3 1 -4 1 -27 0 -49 -1 -39 -3 -42 -28 -40 -16 1 -33 4 -38 8 -6 4
-17 3 -25 -3 -20 -12 -33 -11 -25 1 4 6 -13 10 -44 10 -27 0 -51 -4 -53 -9 -5
-13 -305 -20 -318 -7 -7 7 -10 6 -10 -2 0 -7 -4 -12 -10 -12 -5 0 -10 20 -10
45 0 52 17 61 23 13 3 -30 4 -30 5 7 2 35 -1 40 -21 41 -19 1 -24 -3 -23 -25z
m1416 -57 c0 -2 -18 -4 -41 -4 -22 0 -38 4 -35 8 5 8 76 4 76 -4z m68 -1 c-10
-2 -28 -2 -40 0 -13 2 -5 4 17 4 22 1 32 -1 23 -4z"/>
<path d="M1537 2993 c18 -2 50 -2 70 0 21 2 7 4 -32 4 -38 0 -55 -2 -38 -4z"/>
<path d="M1670 2990 c0 -5 5 -10 10 -10 6 0 10 5 10 10 0 6 -4 10 -10 10 -5 0
-10 -4 -10 -10z"/>
<path d="M1745 2990 c-3 -5 -2 -10 4 -10 5 0 13 5 16 10 3 6 2 10 -4 10 -5 0
-13 -4 -16 -10z"/>
<path d="M1795 2989 c-12 -19 5 -23 22 -6 16 16 16 17 1 17 -9 0 -20 -5 -23
-11z"/>
<path d="M1859 2989 c16 -6 28 -6 35 1 7 7 -1 10 -24 9 -33 0 -34 -1 -11 -10z"/>
<path d="M1993 2985 c-8 -9 -9 -16 -3 -20 6 -3 13 1 16 10 9 21 2 26 -13 10z"/>
<path d="M2208 2993 c23 -2 59 -2 80 0 20 2 1 4 -43 4 -44 0 -61 -2 -37 -4z"/>
<path d="M2561 2984 c0 -11 3 -14 6 -6 3 7 2 16 -1 19 -3 4 -6 -2 -5 -13z"/>
<path d="M1086 2966 c4 -12 54 -16 54 -5 0 4 -13 9 -29 11 -18 3 -27 0 -25 -6z"/>
<path d="M2270 2950 c0 -5 7 -10 15 -10 8 0 15 5 15 10 0 6 -7 10 -15 10 -8 0
-15 -4 -15 -10z"/>
<path d="M1065 2940 c3 -5 8 -10 11 -10 2 0 4 5 4 10 0 6 -5 10 -11 10 -5 0
-7 -4 -4 -10z"/>
<path d="M2609 2876 c-2 -2 -227 -6 -499 -10 -272 -4 -558 -9 -635 -11 -593
-19 -835 -21 -845 -6 -7 12 -40 5 -40 -9 0 -8 56 -19 115 -21 l40 -2 -45 -7
c-46 -7 901 -4 1340 5 135 3 406 5 603 5 239 0 357 3 357 10 0 7 -149 9 -467
5 -1061 -12 -1607 -16 -1603 -12 7 6 392 15 950 22 250 4 487 8 525 10 39 2
188 4 333 4 167 1 262 5 262 11 0 9 -380 15 -391 6z m-1721 -63 c-10 -2 -26
-2 -35 0 -10 3 -2 5 17 5 19 0 27 -2 18 -5z"/>
<path d="M338 2812 c-19 -4 -81 -82 -72 -91 3 -3 10 3 16 14 26 45 56 65 99
65 23 0 40 2 37 5 -7 7 -59 12 -80 7z"/>
<path d="M560 2810 c0 -6 7 -10 15 -10 8 0 15 2 15 4 0 2 -7 6 -15 10 -8 3
-15 1 -15 -4z"/>
<path d="M2475 2795 c-5 -2 -386 -6 -845 -10 -1025 -9 -1193 -11 -1223 -19
-13 -3 -29 -16 -35 -30 -14 -32 -3 -345 14 -400 12 -38 13 -34 8 59 -12 248
-12 320 0 337 11 15 13 12 14 -24 2 -53 12 -63 12 -12 0 69 -15 66 313 60 196
-4 297 -3 297 4 0 7 333 10 985 10 877 0 985 2 985 15 0 14 -33 15 -257 14
-142 -1 -262 -3 -268 -4z"/>
<path d="M1039 2746 c0 -1 -2 -21 -5 -46 -2 -25 -6 -61 -8 -80 -5 -34 -4 -34
19 14 14 27 32 57 40 66 16 18 20 39 8 41 -5 0 -18 2 -30 3 -13 2 -23 2 -24 2z"/>
<path d="M1220 2740 c-30 -5 -32 -6 -12 -12 19 -5 22 -13 23 -55 1 -26 4 -37
6 -23 2 14 7 32 10 40 3 8 5 21 4 28 -3 16 70 14 81 -2 4 -6 8 -32 8 -58 0
-26 4 -49 9 -52 5 -4 9 21 8 56 -2 58 0 63 21 66 22 3 22 2 24 -112 1 -64 2
-126 2 -138 1 -22 -3 -23 -64 -23 l-65 0 -12 60 c-14 72 -32 121 -32 90 0 -11
6 -49 13 -84 8 -35 12 -69 10 -76 -4 -9 18 -12 77 -13 44 -1 84 -4 88 -6 4 -3
5 67 3 155 l-4 159 123 -3 124 -2 3 -28 c2 -16 -1 -42 -7 -58 -12 -33 -2 -39
17 -9 7 12 18 18 24 14 11 -7 8 24 -7 59 -5 12 -3 17 8 17 9 0 18 -4 21 -9 3
-4 25 -7 49 -5 38 3 46 0 63 -24 31 -41 44 -89 44 -160 0 -51 -3 -63 -14 -59
-8 3 -20 0 -26 -8 -6 -8 -18 -11 -26 -8 -11 4 -14 27 -13 109 1 58 -1 108 -5
111 -3 3 -6 -92 -7 -213 -1 -354 -1 -369 -21 -369 -9 0 -20 -4 -24 -8 -4 -4
-3 -7 2 -7 9 0 107 -15 170 -25 l30 -5 -4 61 c-3 38 0 65 7 72 9 9 13 7 17 -9
5 -20 14 -21 172 -27 168 -6 218 -12 237 -26 5 -5 33 -9 60 -10 109 -5 180
-16 179 -28 -1 -7 -2 -35 -2 -63 -2 -45 -4 -50 -25 -50 -30 0 -70 29 -63 46 3
7 1 16 -4 19 -6 4 -10 -1 -10 -9 0 -13 -4 -14 -25 -4 -14 6 -25 14 -25 18 0 4
-11 10 -25 12 -17 4 -25 1 -25 -8 0 -8 7 -14 15 -14 25 0 85 -33 85 -48 0 -9
-7 -11 -19 -7 -42 13 -170 32 -180 26 -5 -4 133 -28 307 -55 174 -26 332 -51
350 -53 25 -4 32 -2 32 10 0 9 -6 14 -12 12 -7 -2 -40 1 -73 8 -43 9 -59 17
-57 27 3 12 1 13 -9 3 -16 -16 -66 -17 -75 -1 -11 17 -5 90 8 106 8 9 22 12
42 8 17 -4 54 -8 82 -11 27 -2 54 -5 60 -6 18 -3 34 1 34 10 0 4 -28 11 -62
15 -35 4 -106 13 -158 21 -52 8 -156 21 -230 30 -74 9 -164 20 -200 26 -36 5
-164 20 -285 34 -267 30 -259 26 -253 153 3 75 6 86 28 104 20 16 34 19 67 14
39 -5 57 4 34 18 -5 3 -7 30 -4 60 5 63 -20 125 -62 152 -27 18 -34 54 -11 54
24 0 78 -52 97 -95 20 -44 25 -129 9 -169 -8 -22 -7 -26 8 -26 16 0 453 -28
840 -53 139 -10 182 -10 182 -1 0 11 -190 29 -279 26 -25 -1 -34 3 -38 18 -4
17 -8 18 -20 8 -20 -16 -124 -13 -138 4 -14 18 -58 17 -67 -2 -5 -11 -7 -10
-7 5 -1 27 14 49 28 41 6 -4 20 -5 30 -1 22 7 37 59 46 158 l7 67 54 0 c33 0
54 -4 54 -11 0 -8 4 -8 13 -2 6 5 19 9 27 8 8 -1 23 -3 33 -3 17 -2 18 -10 13
-94 -5 -76 -3 -95 11 -110 14 -16 14 -18 -1 -24 -9 -3 -30 -4 -46 -2 -17 3
-30 1 -30 -4 0 -6 38 -9 118 -8 4 0 7 8 7 17 0 17 22 18 153 9 22 -2 32 2 32
11 0 12 -21 14 -116 10 l-116 -3 7 90 c10 138 0 128 121 122 60 -2 104 0 104
5 0 10 -117 11 -1105 14 -352 1 -656 -1 -675 -5z m948 -43 c-3 -44 7 -57 42
-57 32 0 50 18 29 31 -8 4 -16 3 -20 -3 -4 -6 -14 -8 -22 -5 -12 4 -14 13 -8
33 9 34 31 44 31 14 0 -12 4 -19 10 -15 5 3 7 12 4 20 -4 10 3 13 26 13 31 -1
31 -1 24 -45 -6 -42 -6 -43 23 -43 16 0 34 5 41 12 15 15 16 48 2 48 -5 0 -10
-9 -10 -20 0 -15 -7 -20 -25 -20 -27 0 -35 24 -10 34 8 3 15 12 15 21 0 13 10
15 58 13 l57 -3 0 -140 0 -140 -40 0 c-38 0 -40 1 -46 38 -3 20 -9 41 -13 45
-12 11 -194 8 -206 -4 -6 -6 -12 -21 -13 -33 -1 -23 -30 -36 -64 -29 -17 3
-18 14 -14 128 2 69 5 128 8 133 2 4 31 7 64 7 l60 0 -3 -33z m367 -64 c-4
-54 -9 -101 -12 -105 -7 -12 -51 -9 -59 3 -7 13 -6 178 2 191 3 4 21 8 41 8
l35 0 -7 -97z m-512 72 c10 -13 -2 -217 -14 -230 -5 -5 -9 24 -9 78 0 66 -4
94 -17 114 -10 14 -18 31 -19 37 -2 14 48 15 59 1z m-107 -168 c-7 -63 -16
-73 -16 -19 0 50 1 44 -10 84 l-9 33 20 -24 c16 -20 19 -34 15 -74z m402 -21
c7 -4 12 -21 12 -38 l0 -31 -67 6 c-38 4 -82 7 -100 7 -43 0 -36 42 11 60 24
9 127 7 144 -4z m192 -76 c0 -5 -2 -10 -4 -10 -3 0 -8 5 -11 10 -3 6 -1 10 4
10 6 0 11 -4 11 -10z m-678 -243 c7 -8 20 -12 30 -9 16 4 18 -3 18 -53 0 -52
-2 -56 -20 -51 -11 3 -29 9 -40 12 -17 4 -20 14 -20 60 0 54 9 65 32 41z m89
-24 c0 -5 2 -17 5 -28 5 -26 -4 -65 -16 -65 -14 0 -22 38 -15 70 6 27 24 42
26 23z m725 -142 c-3 -31 -5 -59 -6 -63 0 -5 -4 -8 -10 -8 -11 0 -13 81 -4
117 12 44 26 11 20 -46z m106 52 c4 -2 6 -23 4 -46 -2 -23 -4 -55 -5 -70 -1
-30 2 -30 -78 -17 -5 0 -3 57 3 104 7 46 7 47 38 40 17 -3 34 -8 38 -11z"/>
<path d="M1120 2721 c0 -10 -16 -45 -35 -77 -22 -37 -34 -67 -31 -79 3 -11 6
-29 6 -39 0 -32 8 -14 15 34 4 24 12 53 18 65 10 16 13 -2 15 -99 1 -65 0
-121 -3 -125 -4 -3 -15 5 -26 19 -11 14 -19 21 -18 15 3 -23 -2 -36 -11 -30
-6 4 -8 10 -6 14 3 4 1 21 -4 37 -8 27 -8 26 -8 -13 1 -24 -6 -51 -15 -65 -10
-13 -24 -33 -33 -45 -9 -12 -17 -30 -18 -40 -2 -15 -16 -19 -77 -24 -48 -3
-60 -6 -34 -8 22 -1 58 -4 80 -7 22 -2 92 -6 155 -8 63 -2 121 -4 128 -5 7 -1
12 -15 12 -34 0 -26 6 -36 25 -45 30 -14 44 2 15 18 -13 7 -20 21 -20 40 0 20
-5 30 -15 30 -10 0 -15 10 -15 31 0 27 2 30 15 19 23 -19 19 12 -5 40 -11 13
-18 26 -15 29 4 3 10 -1 15 -9 8 -13 10 -12 10 3 0 9 -7 17 -15 17 -12 0 -15
17 -17 88 l-2 87 -5 -88 c-3 -48 -8 -87 -11 -88 -3 0 -18 4 -33 10 l-28 11 3
170 c2 93 0 170 -4 170 -5 0 -8 -8 -8 -19z m65 -371 c14 -13 25 -27 25 -30 0
-4 -19 -20 -42 -35 -37 -25 -51 -28 -108 -26 -36 1 -69 6 -73 11 -12 11 18 64
50 89 38 29 113 24 148 -9z"/>
<path d="M1192 2700 c0 -14 2 -19 5 -12 2 6 2 18 0 25 -3 6 -5 1 -5 -13z"/>
<path d="M2834 2684 c-10 -39 13 -57 55 -43 21 8 35 8 40 2 8 -13 71 4 71 19
0 6 -11 8 -31 4 -20 -4 -38 -1 -47 6 -12 10 -16 10 -19 1 -5 -15 -53 -17 -53
-3 0 6 7 13 15 16 22 9 18 24 -5 24 -13 0 -22 -9 -26 -26z"/>
<path d="M425 2640 c3 -5 31 -10 60 -10 l54 0 -6 -77 c-6 -78 -12 -100 -20
-75 -6 17 -61 44 -67 33 -3 -4 5 -13 19 -19 29 -13 43 -58 52 -164 4 -53 10
-78 19 -78 7 0 18 -2 26 -5 10 -4 13 11 11 76 -1 44 -7 87 -13 94 -13 15 -10
189 4 218 7 15 1 17 -69 17 -48 0 -74 -4 -70 -10z m125 -272 c0 -18 -2 -20 -9
-8 -6 8 -7 18 -5 22 9 14 14 9 14 -14z"/>
<path d="M685 2640 c-3 -6 0 -22 7 -37 13 -27 14 -27 116 -28 57 0 106 3 109
8 2 4 -1 7 -6 7 -6 0 -11 8 -11 18 0 10 -3 13 -8 6 -8 -13 -132 -24 -132 -12
0 4 -13 5 -30 2 -19 -4 -30 -2 -30 5 0 6 5 11 10 11 6 0 10 4 10 9 0 13 -28
22 -35 11z"/>
<path d="M1684 2615 c-12 -16 -24 -52 -28 -79 -3 -27 -10 -54 -14 -60 -5 -6
-6 -38 -2 -71 l6 -60 8 65 c10 87 25 142 43 162 8 9 13 29 11 45 l-3 28 -21
-30z"/>
<path d="M591 2606 c-8 -9 -10 -32 -5 -65 6 -48 8 -51 36 -51 29 0 29 1 27 53
-1 28 -4 58 -7 65 -6 16 -37 15 -51 -2z m43 -31 c3 -8 2 -14 -2 -12 -8 2 -12
-7 -12 -25 0 -9 4 -8 10 2 8 13 10 12 10 -2 0 -11 -8 -18 -20 -18 -16 0 -20 7
-20 35 0 36 22 50 34 20z"/>
<path d="M2814 2583 c3 -8 6 -15 6 -16 0 -6 171 1 177 6 12 12 -1 15 -95 20
-79 4 -92 3 -88 -10z"/>
<path d="M1340 2569 c0 -11 5 -17 10 -14 6 3 10 13 10 21 0 8 -4 14 -10 14 -5
0 -10 -9 -10 -21z"/>
<path d="M2655 2571 c-3 -5 -1 -12 5 -16 5 -3 10 1 10 9 0 18 -6 21 -15 7z"/>
<path d="M688 2520 c2 -16 8 -27 14 -24 5 3 17 2 26 -2 25 -10 82 -12 82 -2 0
10 -40 27 -61 26 -42 -3 -52 2 -39 17 10 12 9 15 -7 15 -16 0 -19 -5 -15 -30z"/>
<path d="M922 2528 c4 -25 -19 -37 -28 -14 -6 15 -8 15 -20 -1 -13 -17 -14
-17 -20 5 l-7 23 -12 -23 c-6 -13 -10 -26 -8 -30 6 -11 96 -7 111 4 17 14 15
45 -4 52 -11 4 -14 0 -12 -16z"/>
<path d="M795 2530 c3 -5 11 -10 16 -10 6 0 7 5 4 10 -3 6 -11 10 -16 10 -6 0
-7 -4 -4 -10z"/>
<path d="M1347 2520 c-3 -11 -2 -22 2 -24 4 -3 8 6 9 20 2 29 -4 31 -11 4z"/>
<path d="M426 2438 c1 -24 3 -74 5 -113 3 -67 16 -94 44 -94 6 0 3 5 -6 12
-12 9 -18 39 -23 117 -4 58 -11 108 -15 113 -4 4 -6 -12 -5 -35z"/>
<path d="M1061 2464 c0 -11 3 -14 6 -6 3 7 2 16 -1 19 -3 4 -6 -2 -5 -13z"/>
<path d="M3 2400 c0 -36 2 -50 4 -32 2 17 2 47 0 65 -2 17 -4 3 -4 -33z"/>
<path d="M602 2443 c18 -17 133 -26 205 -17 67 9 41 23 -45 23 -42 1 -99 3
-126 5 -44 4 -48 3 -34 -11z"/>
<path d="M1680 2395 c0 -8 5 -15 10 -15 6 0 10 7 10 15 0 8 -4 15 -10 15 -5 0
-10 -7 -10 -15z"/>
<path d="M1854 2399 c-14 -22 -14 -140 -1 -144 7 -3 156 -20 332 -40 360 -40
721 -82 778 -91 29 -5 37 -3 37 10 0 9 -6 13 -15 10 -22 -9 -36 5 -26 24 4 9
11 36 14 60 7 55 -9 64 -117 66 -45 1 -86 5 -92 8 -5 4 -16 3 -24 -2 -9 -5
-19 -5 -26 1 -19 16 -103 22 -119 9 -7 -6 -16 -33 -20 -61 -5 -32 -12 -49 -21
-49 -17 0 -17 5 -4 50 8 29 7 39 -10 62 l-21 28 33 -4 c18 -3 76 -8 128 -11
52 -4 111 -8 130 -10 168 -17 190 -17 190 -1 0 11 -9 16 -30 16 -16 0 -233 16
-482 35 -249 19 -492 38 -539 41 -68 5 -88 3 -95 -7z m249 -24 c111 -8 217
-18 236 -21 30 -5 31 -7 15 -18 -10 -7 -18 -26 -19 -42 -3 -61 -13 -74 -53
-69 -20 2 -66 6 -102 10 -36 3 -74 8 -85 10 -11 2 -52 7 -92 11 -90 8 -139 18
-135 27 1 4 2 30 2 57 0 38 4 50 15 50 9 0 107 -7 218 -15z m380 -60 c45 -6
47 -8 47 -38 0 -42 -10 -78 -20 -72 -5 3 -6 22 -3 44 3 21 1 41 -5 45 -6 3
-13 -13 -16 -39 -4 -25 -12 -45 -18 -45 -9 0 -7 21 8 73 3 9 1 17 -5 17 -5 0
-13 -20 -16 -45 -7 -43 -8 -44 -39 -38 -17 3 -36 10 -43 15 -7 6 -13 4 -16 -4
-2 -7 -7 -10 -11 -7 -4 3 -2 19 4 35 6 15 8 39 5 52 -6 26 -18 25 128 7z m160
-40 c-3 -28 -21 -92 -22 -78 -1 7 -8 10 -18 6 -13 -5 -15 -2 -10 11 4 10 7 32
7 50 0 28 3 33 23 32 16 -1 21 -7 20 -21z m42 -7 c12 51 25 37 25 -28 0 -64
-5 -74 -20 -37 -5 14 -9 16 -9 6 -1 -9 -8 -16 -17 -16 -13 0 -15 7 -10 36 3
20 6 45 7 56 1 11 5 4 9 -15 l7 -35 8 33z m85 12 c0 -5 -5 -10 -10 -10 -6 0
-8 -15 -4 -40 6 -36 5 -40 -15 -40 -11 0 -21 5 -21 11 0 6 7 9 15 5 8 -3 15
-1 15 4 0 6 -4 10 -10 10 -14 0 -13 43 2 58 15 15 28 16 28 2z m49 -32 c-1
-40 -16 -94 -18 -64 -1 16 -3 17 -17 5 -15 -12 -16 -11 -10 11 24 82 47 106
45 48z m45 5 c5 15 12 27 17 27 5 0 7 -12 4 -27 l-5 -28 11 28 c6 15 15 27 19
27 5 0 2 -16 -6 -35 -7 -19 -14 -47 -15 -62 0 -15 -3 -22 -6 -15 -2 6 -9 9
-14 6 -6 -3 -7 5 -3 22 5 19 4 25 -5 20 -6 -4 -11 -16 -11 -27 0 -10 -4 -19
-10 -19 -12 0 -12 20 -3 75 7 40 7 40 13 10 l7 -30 7 28z m96 7 c0 -6 -7 -13
-15 -16 -20 -8 -19 -24 0 -24 14 0 14 -3 0 -31 -13 -25 -19 -28 -31 -19 -14
12 -11 46 8 83 9 18 38 24 38 7z"/>
<path d="M2377 2303 c-4 -3 -7 -11 -7 -17 0 -6 5 -5 12 2 6 6 9 14 7 17 -3 3
-9 2 -12 -2z"/>
<path d="M2396 2282 c-5 -18 -5 -36 -2 -39 7 -7 19 43 13 59 -2 7 -7 -2 -11
-20z"/>
<path d="M2426 2287 c-7 -28 -8 -62 -1 -55 11 11 23 68 15 73 -4 3 -10 -5 -14
-18z"/>
<path d="M2615 2260 c-4 -12 -5 -24 -2 -27 3 -2 8 5 12 17 4 12 5 24 2 27 -3
2 -8 -5 -12 -17z"/>
<path d="M2920 2199 c0 -5 5 -7 10 -4 6 3 10 8 10 11 0 2 -4 4 -10 4 -5 0 -10
-5 -10 -11z"/>
<path d="M1513 2393 c-7 -2 -13 -14 -13 -26 l1 -22 17 21 c17 19 48 22 36 3
-3 -5 6 -9 20 -9 37 0 33 26 -5 34 -35 7 -38 7 -56 -1z"/>
<path d="M771 2385 c7 -7 219 -8 226 -1 4 3 -47 6 -112 6 -65 0 -116 -2 -114
-5z"/>
<path d="M1717 2353 c-8 -16 -8 -103 0 -103 4 0 9 25 9 55 2 53 0 63 -9 48z"/>
<path d="M75 2310 c-4 -6 -10 -8 -15 -5 -9 6 -60 -15 -60 -24 0 -4 18 -7 40
-7 22 -1 40 2 40 7 0 5 7 9 15 9 8 0 15 7 15 15 0 17 -25 20 -35 5z"/>
<path d="M257 2288 c-7 -25 -1 -38 16 -37 9 0 8 2 -1 6 -23 9 -1 23 36 23 42
0 33 14 -14 23 -27 5 -33 3 -37 -15z"/>
<path d="M1638 2283 c7 -3 16 -2 19 1 4 3 -2 6 -13 5 -11 0 -14 -3 -6 -6z"/>
<path d="M1636 2255 c-3 -9 0 -15 9 -15 16 0 20 16 6 24 -5 3 -11 -1 -15 -9z"/>
<path d="M123 2253 c15 -2 37 -2 50 0 12 2 0 4 -28 4 -27 0 -38 -2 -22 -4z"/>
<path d="M1505 2250 c-3 -5 -1 -10 4 -10 6 0 11 5 11 10 0 6 -2 10 -4 10 -3 0
-8 -4 -11 -10z"/>
<path d="M978 2234 c6 -3 12 -13 12 -23 0 -9 7 -26 15 -38 17 -24 76 -165 71
-170 -1 -2 -18 20 -36 48 l-33 51 -111 -7 c-61 -4 -144 -11 -185 -15 -41 -5
-80 -6 -88 -3 -22 9 -17 -151 7 -231 l21 -66 -26 -43 c-18 -33 -25 -58 -25
-98 0 -66 23 -157 45 -178 16 -15 16 -13 1 23 -10 25 -14 52 -10 73 4 21 2 33
-5 33 -19 0 -13 68 9 90 14 14 16 20 7 20 -8 0 -19 -10 -26 -22 -11 -23 -11
-23 -5 2 3 14 13 32 21 40 31 32 83 -74 83 -170 0 -49 -23 -108 -45 -117 -26
-9 -66 38 -72 86 -7 54 -35 73 -111 78 -32 2 -79 14 -110 28 -30 14 -57 23
-60 20 -3 -2 8 -10 24 -16 29 -11 29 -11 6 -20 -17 -6 -44 -1 -104 21 -86 31
-108 36 -108 21 0 -9 157 -71 182 -71 9 0 18 -7 22 -15 3 -8 12 -15 19 -15 8
0 26 -9 40 -20 42 -33 105 -52 130 -39 18 10 11 15 -64 41 -46 16 -92 32 -101
35 -10 3 -18 9 -18 14 0 18 23 20 71 4 28 -9 60 -14 72 -11 12 3 36 0 53 -6
29 -10 32 -15 38 -69 3 -32 3 -65 0 -73 -3 -9 3 -17 15 -21 30 -9 15 -26 -16
-19 -19 5 -24 3 -21 -7 3 -8 22 -17 42 -20 21 -3 41 -11 45 -18 4 -6 32 -14
62 -18 58 -6 302 -106 274 -111 -16 -4 90 -56 225 -109 67 -27 258 -112 270
-121 2 -2 -1 -6 -7 -10 -15 -9 118 -73 162 -79 16 -2 74 -24 130 -49 55 -26
116 -49 135 -51 22 -3 113 14 243 46 170 42 222 51 296 51 50 0 113 5 141 11
43 9 50 14 48 31 -3 19 11 24 152 59 85 21 165 38 178 39 35 0 26 17 -14 25
-23 4 -39 2 -44 -5 -3 -6 -16 -12 -27 -14 -11 -2 -37 -9 -59 -15 -21 -5 -70
-18 -108 -27 -39 -10 -82 -29 -99 -43 -38 -32 -37 -32 -192 -41 -71 -5 -155
-16 -185 -24 -30 -9 -71 -19 -90 -22 -19 -3 -64 -14 -100 -24 -92 -27 -150
-31 -180 -15 -15 9 -19 14 -10 15 13 0 13 1 0 10 -8 5 -23 7 -34 4 -11 -4 -16
-2 -12 4 9 15 -77 52 -106 45 -18 -4 -20 -2 -8 6 12 8 9 12 -13 20 -28 11 -45
36 -33 48 3 4 12 1 18 -5 20 -20 23 -14 24 43 0 30 -1 55 -3 55 -2 0 -8 -11
-13 -25 -5 -14 -24 -34 -42 -46 -18 -12 -25 -19 -15 -15 18 6 25 -18 7 -29 -5
-3 -10 -12 -10 -18 0 -7 4 -6 10 3 8 12 10 12 16 -3 3 -9 12 -17 20 -17 8 0
14 -4 14 -9 0 -13 -67 4 -127 34 -29 14 -53 26 -53 28 0 1 15 3 33 4 23 1 27
-1 13 -6 -16 -6 -12 -10 22 -18 23 -6 42 -7 42 -2 0 5 -9 9 -20 9 -11 0 -20 5
-20 11 0 5 4 8 9 4 5 -3 12 -1 16 5 3 6 -3 10 -16 10 -11 0 -38 9 -58 19 -20
10 -112 54 -206 96 -413 189 -561 257 -569 266 -25 23 9 16 80 -17 115 -53
144 -65 144 -60 0 3 -20 14 -45 25 -25 11 -48 26 -50 33 -3 8 -14 14 -25 15
-11 1 -35 9 -55 19 -28 13 -33 19 -24 30 6 8 8 14 5 14 -4 0 -2 9 4 20 6 12 7
20 1 20 -10 0 -51 -79 -51 -100 0 -10 -5 -9 -18 3 -10 10 -23 17 -28 17 -19 0
-75 41 -69 50 4 6 17 3 34 -9 25 -18 30 -19 49 -6 29 21 42 67 47 169 4 73 2
93 -15 126 -11 21 -29 41 -40 45 -33 10 -15 21 36 20 47 0 73 -20 37 -27 -13
-3 -10 -6 10 -10 21 -4 27 -2 23 8 -4 10 3 14 20 14 32 0 52 19 47 45 -4 21
25 -25 54 -87 10 -21 23 -36 30 -33 7 2 15 0 18 -5 4 -6 -15 -10 -44 -10 -38
0 -55 -5 -70 -21 -19 -21 -19 -49 1 -49 5 0 6 -4 3 -10 -3 -5 -2 -10 3 -10 14
0 64 -50 100 -99 38 -54 40 -65 11 -56 -15 5 -19 4 -15 -4 4 -6 18 -11 32 -11
13 0 23 -4 21 -8 -1 -5 13 -21 31 -36 17 -15 32 -32 32 -37 0 -13 -34 -11 -48
3 -6 6 -15 8 -19 4 -4 -4 -2 -10 4 -14 19 -12 4 -52 -15 -46 -14 5 -14 4 1 -6
21 -14 37 -5 37 20 0 18 3 18 38 6 20 -8 63 -26 94 -40 37 -16 78 -26 115 -28
32 -1 64 -6 70 -11 7 -5 22 -7 34 -4 20 5 28 -4 33 -37 1 -8 5 -19 9 -22 4 -4
7 -18 7 -30 0 -17 -4 -22 -15 -18 -28 11 -15 -4 17 -20 17 -9 32 -16 33 -16 1
0 -6 24 -16 53 -10 28 -18 62 -19 74 0 29 -11 34 -78 39 -64 5 -180 32 -187
44 -3 4 2 13 10 20 17 14 19 47 5 84 -14 38 -4 54 36 54 27 0 37 -5 44 -23 31
-80 96 -150 132 -141 7 1 10 1 5 -1 -9 -6 1 -23 14 -23 5 0 9 8 9 19 0 19 -25
31 -67 31 -13 0 -23 4 -23 8 0 5 22 6 49 2 41 -5 49 -4 48 9 -1 27 13 71 23
71 6 0 7 -11 3 -27 -5 -16 -8 -64 -7 -108 2 -173 107 -290 187 -207 42 43 58
96 61 193 1 48 -2 85 -6 83 -4 -3 -8 6 -8 20 0 14 -4 26 -9 26 -5 0 -11 7 -15
15 -4 13 -2 13 14 5 10 -6 24 -18 29 -28 18 -30 12 -2 -8 36 -23 44 -63 84
-88 87 -10 1 -25 5 -35 9 -22 10 -77 -19 -87 -47 -18 -46 -36 -52 -98 -33 -36
12 -52 21 -43 26 7 4 33 1 58 -8 42 -14 46 -14 58 3 12 17 10 20 -24 37 -35
17 -35 18 -7 13 17 -3 38 -8 49 -12 11 -3 16 -1 12 5 -5 9 -40 18 -106 28 -14
3 -41 8 -60 14 -32 8 -30 9 20 6 30 -2 80 -10 110 -19 32 -10 58 -13 64 -7 5
5 -7 11 -30 15 -22 3 -48 10 -59 15 -19 8 -19 9 2 9 13 1 43 6 68 13 38 10 52
9 95 -6 39 -14 57 -16 78 -8 46 18 86 22 117 13 26 -8 21 -10 -35 -11 -52 -2
-59 -3 -34 -10 40 -9 94 -47 94 -66 0 -8 4 -14 8 -14 4 0 14 -16 21 -35 7 -19
18 -35 26 -35 16 0 28 -31 20 -53 -4 -8 -2 -18 4 -22 6 -3 12 -21 12 -38 2
-30 2 -30 6 -5 4 24 7 26 29 18 35 -14 44 -12 44 5 0 8 -13 21 -29 30 -37 19
-48 35 -24 35 18 0 325 -214 331 -231 2 -5 7 -9 12 -9 4 0 34 -16 66 -36 58
-35 60 -35 149 -31 83 3 145 20 145 37 0 4 -17 2 -37 -6 -54 -19 -167 -18
-206 3 -18 9 -63 39 -102 68 -226 166 -353 245 -397 245 -10 0 -26 16 -37 39
-11 21 -33 49 -49 63 l-29 24 138 1 c124 1 139 -1 155 -18 9 -10 27 -19 38
-19 12 -1 35 -7 51 -14 l30 -13 -55 -8 c-30 -5 -62 -10 -70 -12 -8 -2 -44 -7
-80 -11 -45 -6 -60 -11 -47 -16 9 -5 34 -5 55 -1 20 4 62 9 92 12 30 2 58 7
62 9 10 6 128 -93 128 -107 0 -20 -25 -7 -72 37 -46 43 -53 46 -88 40 -21 -3
-41 -2 -44 3 -3 4 -17 6 -31 4 -13 -3 -22 -9 -19 -14 3 -5 10 -7 15 -4 5 4 18
-1 30 -9 12 -8 28 -12 35 -9 8 3 14 -1 14 -8 0 -9 4 -7 11 4 10 18 12 18 30 1
24 -21 25 -41 2 -23 -16 13 -17 12 -5 -3 8 -10 20 -14 29 -11 9 4 14 2 10 -3
-3 -6 -2 -16 4 -24 7 -12 9 -11 9 4 0 17 15 15 15 -2 0 -4 7 -16 15 -27 16
-22 40 -31 40 -15 0 6 -6 10 -14 10 -8 0 -18 5 -22 12 -5 8 -2 9 9 5 12 -4 22
2 34 19 16 26 16 26 -33 75 -27 26 -56 48 -64 49 -12 0 -11 4 4 15 17 13 15
15 -28 36 -25 11 -53 19 -61 15 -9 -3 -19 3 -25 15 -10 18 -9 19 17 13 15 -4
38 -11 51 -15 13 -5 31 -9 40 -8 27 2 -68 29 -116 34 -24 2 -57 12 -74 22 -30
17 -31 21 -32 86 -2 97 -20 83 -26 -20 -3 -50 -9 -87 -15 -87 -5 1 -45 12 -88
24 -75 22 -80 23 -150 8 -40 -9 -74 -14 -77 -11 -9 8 26 23 72 29 l47 6 3 85
c3 76 1 84 -14 79 -10 -2 -18 -1 -18 3 0 11 -34 28 -70 35 l-35 6 30 -13 c74
-30 75 -32 75 -109 0 -59 -2 -69 -14 -59 -8 7 -17 8 -20 3 -6 -10 -42 -9 -52
1 -4 4 -17 7 -28 7 -33 0 -50 54 -29 87 10 14 20 44 23 67 4 34 9 40 25 38 11
-2 190 -46 398 -98 336 -84 469 -112 402 -85 -11 5 -186 50 -390 101 -344 86
-425 109 -385 110 8 0 51 -9 95 -19 44 -11 82 -18 84 -15 7 7 0 9 -99 31 -52
12 -104 25 -115 29 -17 7 -18 6 -7 -8 11 -14 10 -18 -7 -27 -47 -26 -221 -2
-251 34 -17 20 -8 19 32 -5 41 -24 129 -35 183 -22 l40 9 -57 2 c-32 1 -66 2
-75 2 -26 1 -123 41 -123 51 0 5 -5 6 -10 3 -6 -4 -8 -11 -5 -16 4 -5 1 -9 -6
-9 -8 0 -7 -5 3 -17 8 -10 18 -35 21 -57 3 -21 14 -47 23 -57 22 -25 79 -25
126 0 33 16 40 17 58 4 30 -21 24 -33 -17 -33 -38 0 -36 -14 2 -23 21 -5 -53
-11 -95 -7 -42 4 -80 29 -97 65 -9 19 -21 35 -26 35 -5 0 -7 12 -3 28 3 15 3
21 0 15 -3 -7 -14 -13 -25 -13 -18 0 -18 -2 6 -27 28 -31 32 -53 10 -53 -28 0
-56 39 -53 73 2 25 7 32 25 31 17 0 22 6 25 33 l4 33 -121 0 c-66 0 -158 -4
-205 -9 -194 -22 -214 -21 -231 2 -9 12 -19 32 -23 45 -7 20 -4 22 33 22 23 0
41 5 41 10 0 6 -19 10 -43 10 -37 0 -44 3 -53 28 l-11 28 95 2 c91 3 94 3 87
-17 -3 -12 -2 -21 4 -21 5 0 11 10 13 22 3 19 10 22 67 25 64 4 83 -3 101 -38
8 -14 6 -16 -9 -12 -11 3 -18 -1 -18 -11 0 -9 4 -16 9 -16 4 0 8 4 8 9 0 14
27 7 48 -12 21 -19 74 -22 135 -8 33 8 42 6 58 -10 11 -11 17 -25 13 -32 -4
-7 11 6 34 27 33 32 50 40 90 44 63 6 105 -16 141 -73 16 -25 30 -42 33 -40 8
8 206 -35 879 -194 208 -49 532 -121 543 -121 3 0 6 6 6 14 0 18 -1 19 -205
60 -181 37 -265 56 -630 136 -126 28 -310 68 -407 89 -97 22 -182 42 -188 46
-22 14 9 22 48 14 32 -7 307 -61 382 -75 14 -3 45 -10 70 -15 25 -6 54 -13 65
-15 11 -2 65 -13 120 -24 55 -11 163 -34 240 -51 77 -17 174 -37 215 -44 41
-8 86 -16 100 -20 14 -3 41 -8 60 -11 19 -3 55 -10 79 -15 40 -9 62 -6 49 6
-6 6 -802 166 -1171 236 -256 48 -317 63 -317 79 0 10 141 -16 740 -137 829
-167 750 -153 750 -132 0 11 -4 19 -10 19 -5 0 -106 18 -222 40 -215 40 -283
52 -708 134 -423 81 -624 115 -680 114 -30 0 -61 1 -69 3 -7 2 -16 -2 -18 -8
-3 -7 2 -13 11 -13 24 0 19 -17 -6 -24 -30 -7 -31 -6 -35 34 -2 19 -5 45 -8
57 -3 12 -1 25 5 28 18 11 10 21 -19 23 -16 1 -34 -5 -41 -13 -27 -33 -150 -8
-150 30 0 11 6 11 29 -1 36 -18 127 -31 118 -17 -4 6 -24 13 -46 16 -49 6
-116 38 -116 54 0 16 -5 19 -40 26 -16 4 -24 4 -17 1z m269 -145 c1 -16 -1
-28 -6 -25 -5 3 -11 -1 -15 -9 -3 -8 -2 -15 2 -15 4 0 12 -8 18 -17 9 -15 7
-18 -15 -19 -14 0 -52 -3 -83 -7 -35 -3 -58 -2 -58 4 0 5 16 9 36 9 21 0 33 4
29 10 -3 6 3 10 14 10 12 0 21 -5 21 -11 0 -5 4 -7 10 -4 6 4 2 22 -10 46
l-21 39 31 6 c16 4 30 11 30 17 0 22 13 -5 17 -34z m-125 -1 c25 -1 37 -7 44
-23 10 -20 8 -24 -21 -33 -18 -5 -38 -6 -45 -2 -15 9 -40 58 -40 79 1 14 2 14
14 -2 8 -10 28 -18 48 -19z m-465 -68 c0 -3 3 -13 8 -23 4 -10 5 -21 2 -24 -4
-3 6 -22 22 -42 26 -33 48 -112 36 -130 -2 -5 -16 -6 -30 -3 -36 7 -56 59 -62
166 -4 78 -3 87 10 75 8 -8 15 -16 14 -19z m403 -124 c0 -19 -17 -29 -25 -15
-4 6 -17 14 -29 19 -17 7 -15 9 17 9 26 1 37 -3 37 -13z m37 8 c-3 -3 -12 -4
-19 -1 -8 3 -5 6 6 6 11 1 17 -2 13 -5z m113 -4 c-31 -4 -65 -12 -76 -18 -12
-6 -24 -9 -27 -6 -7 7 -47 -46 -47 -62 0 -8 -4 -14 -10 -14 -6 0 -9 -3 -9 -7
1 -5 1 -25 0 -46 -1 -42 -7 -41 -65 6 -39 32 -29 57 36 92 83 45 139 63 198
63 l55 -1 -55 -7z m-320 -35 c0 -19 -4 -35 -10 -35 -5 0 -10 5 -10 10 0 23
-29 8 -34 -17 -5 -22 -13 -28 -35 -30 -24 -2 -31 4 -46 38 -10 21 -15 42 -12
46 4 3 35 9 69 13 35 4 66 8 71 9 4 0 7 -15 7 -34z m40 7 c0 -9 5 -24 11 -32
7 -11 8 -4 4 25 -4 37 -4 38 5 10 7 -20 6 -41 -1 -62 -12 -38 -29 -44 -29 -10
0 12 -3 40 -7 61 -4 28 -3 37 5 32 7 -4 12 -15 12 -24z m280 -23 c-11 -38 -13
-76 -4 -66 4 3 16 -8 28 -26 18 -27 30 -33 71 -37 28 -3 61 -12 74 -19 16 -9
42 -12 77 -8 l53 5 3 -31 c4 -39 -24 -90 -51 -94 -27 -4 -28 17 -2 24 24 6 35
33 21 47 -8 8 -9 6 -5 -6 5 -13 -1 -19 -27 -26 -39 -10 -68 -5 -62 11 2 7 -16
23 -41 36 -38 20 -49 22 -71 13 -36 -17 -44 -15 -45 11 -1 16 -2 18 -6 5 -2
-10 -11 -18 -19 -18 -17 0 -17 8 1 40 8 14 14 32 14 40 0 8 -6 2 -14 -15 -13
-26 -14 -27 -9 -5 3 14 1 37 -5 50 -9 22 -10 20 -11 -20 0 -37 -3 -42 -11 -27
-6 10 -9 28 -6 38 4 17 3 18 -9 8 -11 -9 -14 -7 -15 12 -1 13 -3 17 -5 9 -3
-8 5 -33 15 -54 23 -43 20 -56 -11 -56 -37 0 -2 -27 52 -40 37 -9 57 -9 82 0
27 10 38 9 60 -3 28 -14 85 -87 68 -87 -5 0 -12 5 -15 10 -4 6 -10 8 -15 5
-12 -8 -33 33 -24 47 4 6 3 8 -4 4 -6 -3 -13 -2 -17 4 -4 6 -12 4 -22 -5 -16
-17 -57 -15 -153 6 -52 11 -122 7 -127 -8 -2 -6 -15 -8 -29 -5 -20 4 -23 7
-12 14 9 7 7 8 -9 5 -12 -3 -24 0 -26 7 -2 6 -8 8 -11 4 -4 -3 5 -14 21 -24
15 -9 40 -25 55 -35 14 -10 95 -33 179 -50 148 -31 205 -51 193 -70 -8 -14
-24 -10 -24 6 0 18 -13 18 -96 4 -63 -11 -63 -11 -116 24 -29 19 -68 37 -86
41 -38 7 -212 86 -212 96 0 3 21 11 48 18 55 14 142 14 121 1 -10 -6 -10 -9
-2 -9 22 0 43 46 57 124 7 43 19 83 26 89 13 12 13 10 -7 -40 -4 -10 5 -5 19
11 20 23 93 59 105 51 2 -1 -2 -17 -7 -36z m-210 21 c8 -5 11 -10 5 -10 -5 0
-17 5 -25 10 -8 5 -10 10 -5 10 6 0 17 -5 25 -10z m424 -58 c-1 -7 -2 -21 -2
-32 -2 -16 -9 -20 -36 -20 -18 0 -38 6 -44 13 -14 17 -25 64 -18 75 8 13 101
-20 100 -36z m102 -20 c-4 -3 -11 -1 -18 6 -8 8 -17 7 -34 -5 -23 -14 -24 -14
-24 7 0 19 4 22 30 18 17 -3 34 0 38 6 4 7 8 4 10 -7 2 -10 1 -21 -2 -25z
m-591 -42 c-3 -5 0 -10 7 -11 34 -2 53 -9 72 -28 l20 -21 -31 0 c-23 0 -33 6
-38 20 -3 11 -15 20 -26 20 -10 0 -19 7 -19 15 0 8 5 15 11 15 5 0 7 -4 4 -10z
m645 -129 c0 -7 -51 -31 -66 -31 -14 0 0 22 19 30 29 12 47 12 47 1z m-230
-69 c-13 -5 -38 15 -52 41 -7 14 -7 17 1 13 6 -4 11 -2 11 5 0 7 11 -3 25 -21
15 -20 21 -36 15 -38z m-97 42 c24 -4 41 -13 49 -27 11 -22 11 -22 -11 -3 -19
17 -21 17 -21 3 0 -20 -55 -24 -80 -6 -11 8 -7 9 18 5 18 -3 31 -2 27 3 -3 5
-35 9 -72 9 -79 -1 -133 9 -133 24 0 10 132 5 223 -8z m-349 -3 c3 -4 34 -22
69 -39 l64 -30 6 -59 c3 -32 8 -67 13 -78 4 -11 -19 16 -51 60 -31 44 -73 97
-93 118 -20 20 -31 37 -25 37 7 0 14 -4 17 -9z m693 3 c-3 -3 -12 -4 -19 -1
-8 3 -5 6 6 6 11 1 17 -2 13 -5z m353 -44 c0 -5 -5 -10 -11 -10 -5 0 -7 5 -4
10 3 6 8 10 11 10 2 0 4 -4 4 -10z m-837 -38 c23 -25 34 -60 42 -135 l7 -67
-25 0 c-15 0 -34 9 -44 19 -21 23 -48 150 -38 181 8 25 36 26 58 2z m224 -38
c-3 -3 -12 -4 -19 -1 -8 3 -5 6 6 6 11 1 17 -2 13 -5z m-50 -10 c-3 -3 -12 -4
-19 -1 -8 3 -5 6 6 6 11 1 17 -2 13 -5z m105 -64 c11 0 18 -7 18 -17 0 -33
-16 -44 -56 -41 -31 2 -43 10 -61 37 -13 19 -23 40 -23 47 0 22 34 21 70 -3
19 -13 43 -23 52 -23z m202 19 c98 -85 100 -290 4 -362 -26 -19 -27 -19 -60
-1 -22 13 -43 39 -63 79 -39 78 -42 186 -7 252 37 71 72 80 126 32z m37 14
c13 -15 12 -15 -8 -4 -24 12 -29 21 -14 21 5 0 15 -7 22 -17z m-965 -66 c4 -4
0 -7 -9 -7 -9 0 -18 4 -21 9 -7 10 20 9 30 -2z m1294 -72 c0 -3 -16 2 -36 10
-20 8 -38 15 -40 15 -2 0 -4 5 -4 10 0 6 18 1 40 -10 22 -11 40 -23 40 -25z"/>
<path d="M1205 2070 c3 -5 8 -10 11 -10 2 0 4 5 4 10 0 6 -5 10 -11 10 -5 0
-7 -4 -4 -10z"/>
<path d="M1426 1654 c-11 -8 -16 -14 -10 -14 13 0 39 18 34 24 -3 2 -14 -2
-24 -10z"/>
<path d="M1077 1506 c-10 -26 -8 -74 3 -81 6 -3 10 -21 10 -40 0 -24 7 -39 22
-50 30 -20 32 -10 18 75 -13 76 -41 127 -53 96z m30 -74 c-3 -14 -6 -12 -14 8
-6 14 -8 29 -5 34 7 13 24 -22 19 -42z m13 -73 c0 -11 -4 -17 -10 -14 -5 3
-10 13 -10 21 0 8 5 14 10 14 6 0 10 -9 10 -21z"/>
<path d="M1491 1393 c-26 -32 -34 -61 -28 -99 3 -25 4 -23 6 9 1 44 23 91 48
106 10 6 13 11 6 11 -6 0 -21 -12 -32 -27z"/>
<path d="M1589 1357 c3 -46 1 -50 -12 -38 -14 11 -20 9 -42 -13 -21 -21 -26
-34 -23 -64 2 -20 8 -40 13 -44 6 -5 5 -12 -5 -17 -10 -7 -17 -6 -22 2 -4 7
-8 8 -9 2 -1 -5 -7 8 -14 30 -13 38 -13 38 -14 10 0 -16 6 -47 13 -68 36 -99
117 -122 157 -45 10 19 8 19 -14 -4 -34 -36 -66 -35 -103 3 -28 30 -28 31 -10
45 26 18 60 18 76 -1 15 -18 42 -19 58 -3 22 22 15 137 -12 194 -32 69 -42 72
-37 11z m41 -140 c-6 -76 -23 -84 -67 -30 -42 53 -47 75 -25 103 17 22 19 22
36 5 12 -13 17 -29 14 -52 -2 -18 0 -33 4 -33 4 0 8 9 8 20 0 11 5 20 10 20 6
0 10 17 11 38 1 29 2 32 7 14 4 -13 5 -51 2 -85z"/>
<path d="M1544 1277 c-9 -24 0 -52 16 -52 21 0 24 39 6 55 -13 10 -17 9 -22
-3z m13 -39 c-3 -8 -6 -5 -6 6 -1 11 2 17 5 13 3 -3 4 -12 1 -19z"/>
<path d="M88 2217 c-98 -15 -117 -32 -23 -21 155 20 494 -3 765 -51 47 -8 108
-14 135 -14 28 1 39 4 25 6 -44 7 -334 53 -365 58 -16 2 -75 7 -130 10 -55 3
-113 8 -130 10 -91 11 -209 12 -277 2z"/>
<path d="M695 2208 c233 -42 305 -52 284 -39 -8 6 -78 19 -155 30 -139 21
-224 27 -129 9z"/>
<path d="M1706 2212 c-3 -5 -3 -28 0 -50 6 -45 -11 -66 -31 -39 -11 15 -32 17
-153 15 -78 -2 -134 -7 -126 -11 8 -5 74 -8 146 -8 79 1 128 -3 122 -8 -5 -5
-20 -11 -34 -14 -14 -2 2 -5 35 -6 l60 -1 -2 61 c-1 61 -6 78 -17 61z"/>
<path d="M1628 2193 c-27 -7 -21 -21 7 -19 14 0 25 4 25 8 0 11 -13 15 -32 11z"/>
<path d="M1415 2180 c-4 -6 11 -10 41 -10 26 0 44 3 41 7 -12 11 -75 14 -82 3z"/>
<path d="M1560 2180 c0 -5 9 -10 20 -10 11 0 20 5 20 10 0 6 -9 10 -20 10 -11
0 -20 -4 -20 -10z"/>
<path d="M86 2166 c-46 -6 -81 -16 -84 -23 -4 -15 9 -16 96 -4 37 6 93 13 125
16 31 4 57 11 57 16 0 12 -92 9 -194 -5z"/>
<path d="M1330 2176 c0 -2 11 -6 25 -8 13 -3 22 -1 19 3 -5 9 -44 13 -44 5z"/>
<path d="M323 2163 c20 -2 54 -2 75 0 20 2 3 4 -38 4 -41 0 -58 -2 -37 -4z"/>
<path d="M540 2145 c136 -17 190 -16 80 1 -47 7 -107 12 -135 12 -34 -1 -17
-5 55 -13z"/>
<path d="M263 2127 c-8 -13 -3 -14 72 -7 51 5 59 8 30 9 -22 2 -53 4 -68 5
-16 1 -31 -2 -34 -7z"/>
<path d="M418 2118 c9 -9 15 -9 24 0 9 9 7 12 -12 12 -19 0 -21 -3 -12 -12z"/>
<path d="M711 2126 c2 -2 27 -6 54 -9 34 -4 42 -3 25 3 -25 8 -87 13 -79 6z"/>
<path d="M515 2111 c57 -12 174 -21 150 -11 -11 4 -58 10 -105 13 -56 4 -71 3
-45 -2z"/>
<path d="M1970 2109 c13 -8 13 -10 0 -19 -10 -7 29 -10 123 -10 90 0 136 4
132 10 -3 6 -19 10 -36 10 -16 0 -29 3 -29 8 0 4 -46 8 -102 9 -67 1 -97 -1
-88 -8z"/>
<path d="M2220 2106 c59 -13 93 -10 68 5 -7 5 -38 8 -68 8 l-55 -1 55 -12z"/>
<path d="M137 2103 c18 -2 50 -2 70 0 21 2 7 4 -32 4 -38 0 -55 -2 -38 -4z"/>
<path d="M833 2103 c9 -2 23 -2 30 0 6 3 -1 5 -18 5 -16 0 -22 -2 -12 -5z"/>
<path d="M0 2092 c0 -4 17 -6 38 -4 64 6 69 10 15 11 -29 0 -53 -3 -53 -7z"/>
<path d="M319 2096 c-2 -2 -32 -6 -67 -9 -125 -11 -252 -31 -252 -39 0 -5 10
-6 23 -4 12 3 93 13 180 22 86 10 157 21 157 26 0 8 -33 11 -41 4z"/>
<path d="M1283 2094 c8 -8 13 -9 77 -18 111 -16 242 -36 262 -40 22 -5 78 -14
128 -21 54 -8 246 -44 260 -49 8 -3 33 -8 55 -11 22 -3 49 -7 60 -9 11 -2 52
-9 90 -15 39 -6 90 -16 115 -21 25 -6 113 -21 195 -34 135 -23 299 -50 350
-60 74 -14 125 -17 125 -7 0 5 -15 13 -32 16 -318 53 -905 154 -1048 180 -313
57 -652 105 -637 89z"/>
<path d="M205 2039 c-66 -10 -139 -18 -163 -19 -53 0 -52 -18 0 -36 32 -11 36
-11 31 2 -3 8 -12 13 -19 10 -7 -3 -16 -1 -19 4 -4 6 9 10 29 10 20 0 36 -4
36 -9 0 -5 9 -12 20 -15 53 -15 62 -14 26 3 -21 10 -34 21 -30 24 32 19 426
39 452 23 6 -3 13 -2 16 2 16 27 -214 27 -379 1z"/>
<path d="M2060 2050 c-115 -8 -70 -12 157 -14 108 -1 159 2 152 9 -12 12 -175
15 -309 5z"/>
<path d="M720 2040 l-35 -7 43 -2 c27 0 41 3 37 9 -3 6 -7 9 -8 9 -1 -1 -18
-5 -37 -9z"/>
<path d="M785 2040 c-3 -5 -1 -10 4 -10 6 0 11 5 11 10 0 6 -2 10 -4 10 -3 0
-8 -4 -11 -10z"/>
<path d="M814 2034 c3 -9 6 -22 6 -30 0 -8 4 -14 8 -14 5 0 7 14 4 30 -2 17
-9 30 -14 30 -6 0 -7 -7 -4 -16z"/>
<path d="M880 2019 c0 -17 4 -28 10 -24 6 3 10 17 10 31 0 13 -4 24 -10 24 -5
0 -10 -14 -10 -31z"/>
<path d="M915 2040 c3 -5 8 -10 11 -10 2 0 4 5 4 10 0 6 -5 10 -11 10 -5 0 -7
-4 -4 -10z"/>
<path d="M951 2023 c-1 -26 3 -31 19 -30 23 1 28 17 6 17 -8 0 -17 10 -19 23
-3 16 -5 14 -6 -10z"/>
<path d="M978 2043 c6 -2 18 -2 25 0 6 3 1 5 -13 5 -14 0 -19 -2 -12 -5z"/>
<path d="M393 2012 c-7 -4 38 -8 100 -9 84 -1 102 1 72 7 -51 11 -156 12 -172
2z"/>
<path d="M850 2006 c0 -9 5 -16 10 -16 6 0 10 4 10 9 0 6 -4 13 -10 16 -5 3
-10 -1 -10 -9z"/>
<path d="M916 2011 c-4 -7 -5 -15 -2 -18 9 -9 19 4 14 18 -4 11 -6 11 -12 0z"/>
<path d="M200 2001 c0 -10 50 -25 57 -18 2 3 -10 9 -26 15 -17 6 -31 7 -31 3z"/>
<path d="M328 2003 c7 -3 16 -2 19 1 4 3 -2 6 -13 5 -11 0 -14 -3 -6 -6z"/>
<path d="M780 2000 c0 -5 5 -10 10 -10 6 0 10 5 10 10 0 6 -4 10 -10 10 -5 0
-10 -4 -10 -10z"/>
<path d="M1430 2000 c0 -13 33 -21 44 -10 6 6 6 10 1 11 -6 0 -18 2 -27 4 -10
2 -18 0 -18 -5z"/>
<path d="M2248 2003 c7 -3 16 -2 19 1 4 3 -2 6 -13 5 -11 0 -14 -3 -6 -6z"/>
<path d="M270 1976 c0 -2 7 -7 16 -10 8 -3 12 -2 9 4 -6 10 -25 14 -25 6z"/>
<path d="M842 1967 c-74 -5 -130 -13 -125 -17 8 -8 342 15 351 25 7 6 -59 4
-226 -8z"/>
<path d="M418 1963 c7 -3 16 -2 19 1 4 3 -2 6 -13 5 -11 0 -14 -3 -6 -6z"/>
<path d="M1200 1960 c36 -11 52 -11 45 0 -3 6 -21 10 -38 9 -31 -1 -31 -1 -7
-9z"/>
<path d="M120 1956 c0 -2 9 -6 20 -9 11 -3 18 -1 14 4 -5 9 -34 13 -34 5z"/>
<path d="M450 1958 c8 -9 132 -39 138 -34 2 3 -14 9 -35 15 -57 15 -109 25
-103 19z"/>
<path d="M258 1943 c7 -3 16 -2 19 1 4 3 -2 6 -13 5 -11 0 -14 -3 -6 -6z"/>
<path d="M195 1930 c11 -5 27 -9 35 -9 9 0 8 4 -5 9 -11 5 -27 9 -35 9 -9 0
-8 -4 5 -9z"/>
<path d="M388 1933 c7 -3 16 -2 19 1 4 3 -2 6 -13 5 -11 0 -14 -3 -6 -6z"/>
<path d="M111 1925 c3 -2 68 -23 145 -46 76 -22 190 -56 253 -75 63 -19 116
-32 119 -29 6 6 4 6 -148 51 -376 109 -379 109 -369 99z"/>
<path d="M428 1923 c7 -3 16 -2 19 1 4 3 -2 6 -13 5 -11 0 -14 -3 -6 -6z"/>
<path d="M251 1916 c10 -9 351 -107 362 -103 6 2 -18 11 -54 21 -35 10 -115
33 -178 52 -106 32 -140 40 -130 30z"/>
<path d="M391 1906 c8 -8 213 -65 218 -60 5 5 -5 8 -104 34 -44 12 -89 24
-100 27 -11 3 -17 3 -14 -1z"/>
<path d="M498 1903 c7 -3 16 -2 19 1 4 3 -2 6 -13 5 -11 0 -14 -3 -6 -6z"/>
<path d="M531 1896 c2 -2 18 -6 34 -10 22 -5 26 -4 15 4 -14 9 -59 15 -49 6z"/>
<path d="M2778 1883 c7 -3 16 -2 19 1 4 3 -2 6 -13 5 -11 0 -14 -3 -6 -6z"/>
<path d="M170 1877 c5 -6 94 -35 225 -75 158 -49 208 -62 213 -57 7 6 -39 21
-318 101 -47 14 -94 27 -105 31 -11 3 -18 3 -15 0z"/>
<path d="M2940 1856 c0 -2 14 -6 30 -8 17 -3 30 -1 30 4 0 4 -13 8 -30 8 -16
0 -30 -2 -30 -4z"/>
<path d="M30 1841 c0 -5 9 -7 20 -4 11 3 20 7 20 9 0 2 -9 4 -20 4 -11 0 -20
-4 -20 -9z"/>
<path d="M1855 1811 c33 -10 83 -23 110 -29 28 -6 142 -34 255 -61 360 -88
424 -102 477 -111 29 -4 67 -13 85 -18 18 -6 60 -16 93 -22 33 -6 67 -14 75
-17 27 -10 50 -10 50 1 0 7 -59 24 -132 39 -73 16 -252 55 -398 88 -580 132
-655 149 -665 148 -5 0 17 -9 50 -18z"/>
<path d="M0 1813 c0 -5 22 -15 49 -22 28 -7 55 -19 62 -27 6 -8 30 -19 53 -26
22 -6 46 -15 51 -19 10 -7 62 -13 80 -9 6 2 -8 6 -30 9 -24 4 -39 11 -38 19 2
7 -7 12 -21 12 -31 0 -86 20 -86 31 0 5 12 10 28 10 15 1 2 5 -28 9 -30 4 -70
11 -87 15 -19 4 -33 4 -33 -2z"/>
<path d="M0 1770 c0 -10 96 -43 111 -38 6 2 -17 13 -50 25 -34 11 -61 17 -61
13z"/>
<path d="M1610 1770 c8 -5 20 -10 25 -10 6 0 3 5 -5 10 -8 5 -19 10 -25 10 -5
0 -3 -5 5 -10z"/>
<path d="M1610 1746 c42 -17 58 -20 45 -7 -6 5 -26 12 -45 15 l-35 6 35 -14z"/>
<path d="M1750 1744 c24 -15 24 -15 2 -10 -14 3 -22 0 -19 -7 3 -11 126 -47
162 -46 18 0 17 1 -5 14 -19 11 -21 14 -7 15 41 0 12 19 -54 34 -91 20 -112
20 -79 0z m104 -34 c7 -7 1 -7 -19 -1 -54 17 -61 21 -25 16 19 -3 39 -10 44
-15z"/>
<path d="M0 1720 c0 -5 15 -16 33 -24 l32 -14 -32 -7 c-36 -8 -45 -25 -14 -25
10 0 21 -8 23 -18 6 -20 269 -142 307 -142 42 0 19 18 -71 55 -154 64 -239
105 -233 114 2 5 42 12 87 15 63 6 93 3 126 -8 34 -12 47 -13 62 -3 16 9 30 8
71 -6 31 -11 62 -16 80 -12 39 9 38 29 -1 21 -17 -3 -42 -1 -58 5 -15 7 -58
13 -97 15 -198 10 -234 13 -269 28 -45 19 -46 19 -46 6z"/>
<path d="M1552 1710 c2 -34 25 -59 49 -53 24 7 25 21 2 30 -10 4 -26 16 -35
28 -17 20 -17 20 -16 -5z"/>
<path d="M1606 1711 c5 -5 20 -12 34 -15 24 -7 24 -6 6 8 -21 17 -57 23 -40 7z"/>
<path d="M1973 1697 c2 -6 21 -15 43 -20 89 -19 199 -49 209 -56 5 -4 24 -4
40 0 17 3 27 7 23 8 -4 0 -69 17 -145 36 -76 19 -146 37 -156 39 -11 3 -17 0
-14 -7z"/>
<path d="M1740 1686 c0 -3 26 -10 58 -17 32 -8 48 -14 36 -16 -11 -2 -39 0
-63 6 -31 7 -41 6 -38 -2 2 -7 16 -11 31 -9 16 2 25 -1 22 -7 -3 -5 2 -8 11
-6 63 13 83 14 78 5 -3 -6 1 -10 9 -10 9 0 16 6 16 13 0 8 -28 20 -72 30 -77
18 -88 20 -88 13z"/>
<path d="M770 1671 c0 -9 30 -24 36 -18 2 1 -6 8 -16 15 -11 7 -20 8 -20 3z"/>
<path d="M1635 1670 c3 -5 11 -10 16 -10 6 0 7 5 4 10 -3 6 -11 10 -16 10 -6
0 -7 -4 -4 -10z"/>
<path d="M1970 1661 c8 -5 74 -24 145 -42 72 -18 131 -34 133 -35 2 -1 -9 -19
-23 -40 -28 -41 -30 -77 -5 -82 10 -2 20 10 28 30 13 37 57 68 94 68 81 0 153
-127 132 -236 l-6 -33 -32 22 c-17 12 -33 25 -34 30 -2 4 -8 5 -13 1 -5 -3 -9
-1 -9 4 0 6 7 13 16 16 12 5 14 16 10 53 -5 48 -17 63 -52 63 -22 0 -54 -28
-54 -48 0 -6 -5 -14 -12 -18 -11 -7 -9 7 7 51 8 20 8 20 -8 0 -15 -18 -16 -18
-17 -2 0 9 9 26 20 37 17 17 29 20 63 15 23 -4 46 -11 51 -16 19 -18 29 -9 12
10 -49 54 -127 44 -158 -19 -15 -30 -15 -36 -1 -57 9 -13 49 -49 90 -80 69
-52 91 -79 45 -54 -41 22 -94 8 -124 -34 -18 -23 -17 -24 15 -57 71 -71 135
-108 190 -108 59 0 92 19 92 52 -1 15 1 25 3 23 2 -2 15 6 28 18 74 64 88 278
24 360 -11 14 -20 27 -20 29 0 2 88 -18 196 -45 108 -26 199 -45 202 -42 9 8
-4 16 -40 25 -281 66 -347 80 -354 79 -5 -1 -26 6 -48 15 -21 9 -41 15 -44 12
-3 -3 0 -6 7 -6 7 0 30 -19 52 -42 36 -39 41 -47 38 -64 0 -4 4 -10 10 -13 6
-4 14 -43 17 -88 6 -75 5 -82 -17 -102 -12 -11 -18 -21 -11 -21 6 0 9 -10 7
-21 -5 -23 -33 -59 -47 -59 -16 0 -49 41 -41 53 4 7 0 7 -10 -2 -15 -12 -17
-11 -17 3 0 9 -4 16 -10 16 -6 0 -7 21 -4 53 4 33 0 74 -9 110 -13 50 -13 58
-1 53 25 -9 15 12 -24 53 -44 46 -77 57 -133 43 -32 -8 -38 -8 -29 3 17 21 75
27 112 12 18 -8 48 -26 66 -42 43 -36 51 -26 10 14 -17 17 -28 31 -22 31 5 0
2 5 -6 10 -26 17 -113 11 -155 -10 -35 -18 -41 -18 -62 -5 -13 9 -23 13 -23
11 0 -3 -15 0 -32 5 -18 6 -40 12 -48 14 -8 1 -43 10 -76 19 -70 18 -109 21
-84 7z m428 -229 c3 -11 0 -11 -16 -1 -17 10 -23 10 -36 0 -16 -13 -23 -2 -9
13 11 11 56 2 61 -12z m-11 -39 c7 -19 -19 -27 -31 -10 -7 8 -25 17 -41 20
-17 3 -8 4 19 3 28 -2 51 -7 53 -13z m48 -123 c22 -11 60 -40 85 -65 40 -40
43 -47 29 -60 -25 -25 -84 -30 -134 -10 -49 18 -51 29 -8 40 19 4 29 2 35 -9
10 -17 53 -22 62 -7 3 5 -10 18 -29 30 -19 11 -35 27 -35 34 0 22 -60 48 -83
35 -14 -7 -16 -13 -8 -21 7 -7 15 -6 26 3 9 7 15 8 15 2 0 -6 2 -16 5 -24 3
-8 -6 -18 -25 -25 -28 -11 -34 -9 -63 17 -28 25 -30 30 -17 45 32 38 85 44
145 15z"/>
<path d="M656 1633 c-11 -14 -14 -23 -7 -18 18 11 31 -13 31 -57 0 -21 5 -38
10 -38 11 0 13 81 4 118 -8 28 -15 27 -38 -5z"/>
<path d="M1967 1629 c8 -8 87 -30 228 -63 16 -4 27 -5 24 -1 -4 3 -64 21 -134
40 -70 19 -124 30 -118 24z"/>
<path d="M2478 1633 c7 -3 16 -2 19 1 4 3 -2 6 -13 5 -11 0 -14 -3 -6 -6z"/>
<path d="M1733 1625 c7 -8 143 -55 160 -55 4 0 7 4 7 8 0 5 -33 16 -72 26 -40
10 -80 20 -88 23 -8 3 -12 2 -7 -2z"/>
<path d="M1815 1621 c11 -4 36 -11 55 -15 24 -4 29 -3 15 3 -11 4 -36 11 -55
15 -24 4 -29 3 -15 -3z"/>
<path d="M650 1586 c0 -8 5 -18 10 -21 6 -3 10 1 10 9 0 8 -4 18 -10 21 -5 3
-10 -1 -10 -9z"/>
<path d="M1971 1595 c10 -9 210 -56 226 -53 10 2 -33 16 -95 31 -110 26 -140
32 -131 22z"/>
<path d="M0 1575 c0 -12 29 -25 58 -25 25 0 11 17 -23 27 -27 9 -35 8 -35 -2z"/>
<path d="M1495 1550 c-19 -8 -19 -9 2 -9 12 -1 28 -3 36 -6 8 -4 14 0 14 10 0
16 -21 19 -52 5z"/>
<path d="M70 1532 c0 -11 251 -127 270 -125 8 1 34 3 58 4 38 2 61 13 51 24
-2 2 -22 6 -44 10 -30 5 -36 4 -25 -4 12 -9 11 -11 -7 -11 -12 0 -28 -3 -37
-6 -9 -3 -16 -1 -16 5 0 6 9 11 20 11 11 0 20 5 20 11 0 7 -10 9 -25 5 -18 -5
-56 7 -129 39 -101 44 -136 53 -136 37z"/>
<path d="M2650 1536 c0 -9 71 -36 95 -36 12 0 25 -3 29 -7 3 -4 14 -8 24 -10
9 -2 58 -11 107 -21 87 -18 106 -19 92 -6 -13 13 -347 90 -347 80z"/>
<path d="M1597 1519 c8 -8 27 -8 64 -1 l54 10 -64 1 c-47 1 -62 -2 -54 -10z"/>
<path d="M2673 1487 c5 -16 327 -97 327 -82 0 7 -17 16 -37 19 -21 4 -51 11
-68 16 -90 28 -226 57 -222 47z"/>
<path d="M0 1450 c0 -17 7 -20 43 -20 23 0 48 4 56 9 25 16 1 31 -50 31 -42 0
-49 -3 -49 -20z"/>
<path d="M2705 1435 c17 -8 37 -14 45 -15 9 0 69 -13 134 -29 64 -16 114 -25
109 -21 -8 8 -295 81 -310 79 -5 0 6 -7 22 -14z"/>
<path d="M153 1402 c-1 -13 48 -44 194 -121 107 -57 206 -106 218 -109 13 -2
22 -9 19 -16 -2 -6 85 -60 206 -126 197 -107 211 -117 207 -140 -4 -22 3 -29
67 -60 39 -20 170 -88 291 -153 l220 -116 75 15 c77 16 84 19 86 35 1 5 2 13
3 18 0 6 26 -3 57 -20 31 -16 62 -29 70 -29 8 0 14 -4 14 -9 0 -5 80 -51 178
-102 280 -145 383 -199 447 -234 155 -85 201 -105 242 -105 32 0 43 4 48 19 3
12 30 28 73 43 54 20 66 29 64 44 -5 27 -7 27 -42 9 -18 -9 -65 -19 -105 -22
l-72 -6 -406 207 c-223 113 -408 206 -410 206 -3 0 -3 -9 0 -20 3 -12 8 -19
11 -16 2 3 61 -24 131 -59 69 -35 138 -68 154 -74 15 -6 27 -15 27 -21 0 -5 7
-10 15 -10 8 0 45 -16 82 -37 88 -47 77 -41 238 -120 77 -37 142 -71 145 -75
3 -4 29 -6 57 -4 48 4 51 2 40 -14 -6 -10 -26 -21 -43 -25 -36 -6 -66 7 -304
135 -69 37 -225 118 -348 181 l-224 114 5 35 5 35 -115 55 c-63 30 -119 57
-124 58 -5 2 -9 -8 -9 -22 0 -21 10 -31 50 -51 28 -14 48 -29 46 -34 -7 -11
-86 -31 -120 -31 -14 0 -83 30 -153 66 -70 37 -202 105 -292 151 l-164 86 24
19 c19 15 20 18 5 14 -13 -4 -88 30 -232 106 -117 62 -214 116 -214 119 0 4
22 9 50 13 47 6 56 3 191 -65 140 -70 143 -71 173 -56 l31 16 -30 1 c-16 0
-99 34 -182 75 -84 40 -154 71 -154 67 -1 -4 -1 -10 0 -14 0 -4 -23 -10 -53
-13 -57 -7 -66 -4 -349 151 -53 30 -101 54 -105 54 -4 0 -8 -8 -9 -18z m567
-307 c0 -3 -22 6 -50 20 -27 14 -50 28 -50 30 0 3 23 -6 50 -20 28 -14 50 -28
50 -30z m167 -91 c-4 -5 -157 75 -157 82 0 2 36 -14 81 -37 45 -22 79 -42 76
-45z m109 -62 c-6 -5 -96 46 -96 54 0 3 23 -7 50 -22 28 -15 48 -29 46 -32z
m50 -67 c2 -12 -2 -12 -17 -5 -23 13 -25 22 -2 13 12 -5 14 -3 8 8 -5 8 -4 11
0 6 5 -4 10 -14 11 -22z m98 -34 c113 -62 305 -162 381 -199 63 -31 76 -34
130 -29 59 5 59 5 25 -8 -42 -16 -134 -20 -125 -5 3 6 2 10 -3 10 -5 0 -51 23
-101 50 -51 28 -97 47 -103 44 -7 -4 -8 -2 -4 4 6 10 -8 18 -17 10 -1 -2 -13
7 -27 20 -13 12 -30 20 -37 18 -7 -3 -13 -1 -13 5 0 6 -5 7 -12 3 -7 -5 -8 -3
-3 6 6 10 4 12 -9 7 -11 -5 -15 -3 -10 4 4 7 1 10 -7 7 -20 -7 -51 11 -43 24
5 8 1 9 -10 5 -9 -4 -15 -3 -12 2 7 11 -22 23 -36 14 -7 -4 -8 -1 -3 7 6 10 4
12 -9 7 -11 -5 -15 -3 -10 5 5 7 2 9 -8 6 -9 -4 -15 0 -15 8 0 19 0 19 81 -25z
m679 -184 c32 -14 52 -38 30 -37 -24 1 -99 49 -102 66 -3 18 -2 18 15 2 11 -9
36 -23 57 -31z"/>
<path d="M1170 806 c0 -2 7 -7 16 -10 8 -3 12 -2 9 4 -6 10 -25 14 -25 6z"/>
<path d="M240 1410 c-13 -8 -12 -10 3 -10 9 0 17 5 17 10 0 12 -1 12 -20 0z"/>
<path d="M2690 1411 c16 -10 280 -81 299 -81 6 0 11 3 11 8 0 4 -53 20 -117
36 -65 16 -134 32 -153 37 -44 11 -59 11 -40 0z"/>
<path d="M38 1383 c-21 -2 -38 -9 -38 -14 0 -13 100 -7 101 6 0 12 -12 13 -63
8z"/>
<path d="M410 1372 c0 -14 16 -26 57 -45 31 -14 61 -23 66 -20 12 7 3 14 -65
52 -53 30 -58 31 -58 13z"/>
<path d="M2683 1376 c0 -8 6 -12 13 -9 8 3 77 -14 155 -37 121 -35 166 -43
148 -26 -2 2 -67 20 -144 41 -77 20 -147 38 -156 41 -9 2 -16 -2 -16 -10z"/>
<path d="M308 1373 c7 -3 16 -2 19 1 4 3 -2 6 -13 5 -11 0 -14 -3 -6 -6z"/>
<path d="M345 1370 c-3 -5 -1 -10 4 -10 6 0 11 5 11 10 0 6 -2 10 -4 10 -3 0
-8 -4 -11 -10z"/>
<path d="M880 1356 c0 -2 7 -7 16 -10 8 -3 12 -2 9 4 -6 10 -25 14 -25 6z"/>
<path d="M2700 1357 c8 -8 291 -89 296 -85 2 3 -56 22 -129 43 -159 46 -173
50 -167 42z"/>
<path d="M2685 1341 c6 -5 24 -13 40 -17 39 -9 30 0 -15 15 -19 6 -30 7 -25 2z"/>
<path d="M390 1332 c0 -5 7 -9 15 -9 8 0 12 4 9 9 -3 4 -9 8 -15 8 -5 0 -9 -4
-9 -8z"/>
<path d="M2676 1294 c-3 -9 -6 -35 -6 -59 0 -43 -1 -43 -40 -50 -47 -8 -56
-18 -33 -36 13 -11 17 -11 20 -1 3 6 11 12 18 12 8 0 22 8 32 19 10 10 39 23
65 30 42 10 51 9 78 -8 l31 -19 -116 -28 c-64 -16 -112 -30 -106 -32 14 -5
157 27 199 44 31 12 36 12 74 -12 22 -14 38 -27 36 -30 -2 -2 -71 -20 -153
-39 -101 -24 -155 -42 -167 -55 -10 -11 -29 -22 -41 -25 -158 -34 -602 -141
-645 -154 -31 -10 -49 -20 -41 -23 7 -3 30 2 49 10 19 8 44 16 55 17 37 6 74
15 99 25 13 5 27 6 30 3 3 -3 12 0 20 6 8 7 20 10 26 6 6 -4 16 -2 23 4 7 5
28 12 47 14 19 2 42 7 50 10 27 10 75 20 84 18 4 -1 14 3 21 9 7 6 20 8 28 4
9 -3 22 -2 29 3 7 4 22 8 33 9 11 0 45 8 75 18 30 10 69 20 85 22 17 3 41 9
55 13 14 5 45 14 68 21 24 6 42 13 40 15 -2 2 -37 -5 -78 -15 -82 -21 -109
-25 -94 -12 16 15 199 52 223 45 19 -5 22 -3 16 8 -7 11 -6 12 6 3 17 -14 75
0 82 20 3 7 -18 49 -48 93 l-53 79 -79 17 c-95 21 -90 21 -97 1z m141 -41 c18
-7 40 -27 48 -44 l16 -31 -44 27 c-51 29 -84 38 -92 24 -4 -5 -15 -9 -26 -9
-13 0 -19 7 -19 23 0 13 3 27 7 30 8 9 68 -2 110 -20z"/>
<path d="M2860 1285 c0 -6 133 -45 138 -40 5 5 -2 8 -77 29 -61 18 -61 18 -61
11z"/>
<path d="M1022 1265 c15 -15 197 -87 221 -87 25 -1 46 14 47 32 0 3 -24 4 -52
2 -41 -3 -70 4 -128 27 -70 29 -100 38 -88 26z"/>
<path d="M1721 1254 c0 -11 3 -14 6 -6 3 7 2 16 -1 19 -3 4 -6 -2 -5 -13z"/>
<path d="M231 1247 c2 -1 13 -9 24 -17 19 -14 19 -14 6 3 -7 9 -18 17 -24 17
-6 0 -8 -1 -6 -3z"/>
<path d="M1890 1211 c0 -25 6 -27 13 -6 4 8 2 17 -3 20 -6 4 -10 -3 -10 -14z"/>
<path d="M125 1207 c18 -10 15 -12 -30 -18 -27 -3 -60 -2 -72 2 -27 10 -32
-11 -8 -31 17 -14 20 -30 4 -30 -5 0 -7 5 -4 10 3 6 1 10 -4 10 -6 0 -11 -9
-11 -21 0 -18 5 -20 37 -17 24 2 38 -1 38 -9 0 -6 4 -15 9 -20 5 -5 6 -3 2 5
-9 16 3 15 34 -2 23 -14 22 -14 -33 -21 -31 -4 -63 -5 -72 -1 -18 7 -21 -24
-3 -42 9 -9 9 -12 0 -12 -7 0 -12 -5 -12 -11 0 -7 10 -9 24 -7 13 3 31 -1 41
-8 16 -12 13 -14 -24 -20 -24 -4 -41 -12 -41 -20 0 -10 6 -11 26 -4 38 15 79
12 113 -7 17 -10 31 -21 31 -25 0 -4 -26 -10 -57 -14 -44 -5 -64 -3 -85 9 -31
18 -38 12 -10 -9 16 -13 16 -13 0 -14 -21 0 -23 -11 -6 -28 10 -10 10 -15 -2
-23 -12 -8 -10 -9 7 -4 20 6 63 -12 63 -26 0 -4 -18 -9 -40 -13 -22 -3 -40
-11 -40 -16 0 -12 4 -12 58 0 34 8 48 7 63 -4 25 -17 18 -21 -44 -30 -32 -5
-53 -3 -63 5 -19 16 -18 5 6 -33 11 -18 20 -27 20 -20 0 8 8 5 22 -8 12 -11
28 -20 35 -20 7 0 13 -4 13 -10 0 -6 9 -6 26 0 39 15 46 12 24 -10 -19 -19
-18 -50 1 -50 6 0 15 -4 22 -10 63 -51 81 -63 99 -64 15 -1 22 -8 23 -25 1
-13 10 -28 20 -33 19 -11 40 -33 68 -69 9 -13 17 -20 17 -17 0 4 15 -7 33 -23
28 -26 39 -29 85 -28 30 2 57 8 64 16 9 11 13 12 19 1 14 -22 10 -28 -20 -28
-35 0 -81 -35 -81 -61 0 -28 -19 -23 -57 13 -18 18 -33 27 -33 21 0 -6 -7 -14
-16 -17 -13 -5 -15 -1 -12 25 4 26 -1 35 -41 67 -53 43 -62 53 -55 64 3 5 1 7
-4 6 -5 -2 -38 22 -73 53 -35 31 -67 55 -71 55 -4 -1 -39 30 -78 69 -62 62
-70 67 -70 45 1 -18 21 -43 78 -92 42 -37 109 -98 149 -135 40 -38 76 -67 81
-65 5 1 15 -5 23 -15 13 -17 12 -17 -6 -4 -11 7 -8 2 6 -11 15 -14 32 -35 38
-47 10 -17 9 -21 -4 -21 -9 0 -13 5 -10 10 4 6 -5 10 -20 10 -22 0 -25 -3 -20
-20 8 -24 -3 -25 -34 -4 -15 11 -26 13 -33 6 -7 -7 -3 -12 12 -17 21 -7 21 -7
-5 -31 l-25 -24 -21 21 c-20 20 -20 21 -2 34 16 12 13 13 -22 9 -44 -5 -51 -1
-137 94 -27 28 -48 46 -48 41 0 -18 113 -141 138 -150 13 -5 20 -13 17 -19 -3
-5 -1 -10 4 -10 6 0 11 -4 11 -10 0 -28 -31 -3 -119 95 l-53 60 7 -35 c9 -40
15 -51 69 -110 37 -42 96 -67 120 -52 16 9 46 10 46 0 0 -4 4 -8 9 -8 5 0 23
-14 40 -31 29 -29 34 -30 83 -24 28 4 72 13 97 19 42 11 49 10 86 -13 22 -14
56 -40 75 -58 40 -37 64 -42 79 -16 9 17 11 16 33 -5 14 -12 33 -22 43 -22 14
0 7 9 -24 31 -56 42 -51 59 25 77 l61 14 52 -38 c28 -21 51 -42 51 -46 0 -9
-23 -15 -95 -27 l-50 -9 61 -1 c35 -1 65 4 72 11 10 10 17 10 32 0 28 -17 44
-15 26 3 -9 9 -19 21 -23 28 -14 21 -130 117 -142 117 -6 0 -16 11 -21 24 -4
13 -30 41 -57 62 -92 74 -215 214 -187 214 3 0 20 -11 37 -23 18 -13 46 -30
64 -36 18 -7 32 -16 31 -20 -2 -20 4 -32 20 -39 52 -23 84 -49 89 -75 3 -16
13 -31 22 -35 9 -3 29 -16 44 -29 16 -13 35 -23 43 -23 8 0 14 -6 14 -12 0
-10 3 -10 9 0 6 10 11 5 20 -19 8 -24 8 -34 0 -40 -8 -5 -8 -8 0 -13 6 -4 11
-2 11 3 0 18 23 12 69 -19 35 -24 47 -27 63 -19 16 9 19 7 18 -8 -5 -41 0 -53
22 -53 21 0 21 1 4 13 -26 19 -16 37 29 53 60 21 78 17 132 -26 54 -42 88 -45
90 -7 2 20 1 21 -11 5 -18 -24 -21 -24 -75 22 -26 22 -53 40 -59 40 -7 0 -12
7 -12 15 0 8 -6 15 -12 15 -21 0 -125 88 -131 110 -8 32 16 35 60 7 57 -36 73
-55 73 -85 0 -24 1 -25 14 -7 13 18 14 18 41 -3 15 -12 43 -24 62 -28 22 -4
37 -14 43 -28 11 -31 104 -79 140 -74 25 4 28 2 17 -10 -6 -9 -7 -13 -2 -11
113 53 143 58 187 32 43 -25 68 -34 68 -25 0 11 -85 62 -103 62 -8 0 -33 17
-55 38 -22 20 -46 38 -53 40 -23 6 -35 22 -16 22 10 0 14 5 11 15 -9 23 4 18
65 -22 57 -38 111 -48 156 -28 18 8 18 7 6 -8 -23 -29 -5 -60 56 -96 54 -31
62 -33 118 -26 33 3 69 7 80 7 11 0 40 5 65 10 38 9 52 8 79 -6 18 -10 35 -15
38 -13 8 9 -52 45 -82 48 -18 3 -42 17 -60 36 -35 38 -130 88 -162 85 -13 -1
-23 3 -23 8 0 6 -4 10 -9 10 -6 0 -22 11 -37 25 -14 13 -59 41 -100 61 -62 31
-74 40 -74 61 0 25 0 25 28 7 74 -48 100 -53 167 -29 21 8 41 13 42 11 2 -1
-6 -13 -17 -26 -11 -13 -20 -27 -20 -31 0 -16 13 -39 21 -39 5 0 28 -12 52
-27 90 -58 267 -149 306 -158 21 -4 53 1 97 15 37 11 68 19 71 17 9 -9 -10
-57 -22 -57 -8 0 -16 -3 -19 -8 -2 -4 14 -6 36 -4 25 3 36 8 30 14 -5 5 -7 29
-4 54 3 28 1 44 -6 44 -6 0 -13 -4 -16 -8 -3 -5 -39 -19 -81 -31 l-76 -23 -52
26 c-72 35 -300 165 -312 177 -7 7 -1 17 18 31 16 12 27 29 27 44 0 29 4 29
-80 3 l-68 -20 -61 30 c-34 17 -61 36 -61 41 0 6 14 13 30 17 35 6 42 14 31
32 -7 10 -19 10 -61 -3 -73 -22 -88 -20 -144 15 -54 34 -51 43 17 54 23 4 36
12 34 18 -3 7 -8 11 -13 10 -5 -1 -37 -7 -70 -14 -60 -12 -63 -12 -108 15 -51
30 -52 41 -6 51 17 4 30 13 30 22 0 11 -6 14 -25 9 -75 -19 -112 -18 -154 3
-43 22 -47 41 -8 41 28 0 53 15 39 24 -5 3 -35 1 -65 -5 -51 -11 -59 -10 -91
11 -38 23 -39 40 -3 40 12 0 29 4 37 10 27 17 2 22 -53 10 -47 -9 -60 -8 -91
6 -20 10 -36 21 -36 25 0 3 18 9 40 13 22 3 40 11 40 16 0 13 -7 12 -69 -1
-41 -9 -55 -8 -82 6 -24 13 -29 19 -18 26 8 5 24 9 36 9 12 0 25 5 28 10 8 13
-9 13 -75 0 -46 -9 -57 -8 -84 9 -32 21 -30 23 27 35 15 4 27 11 27 16 0 6
-13 7 -32 2 -43 -9 -98 -8 -122 3 -16 7 -18 5 -13 -8 3 -9 2 -17 -3 -17 -12 0
-13 20 -2 36 4 6 24 14 45 18 21 4 35 11 33 15 -3 5 -29 4 -57 -2 -44 -9 -57
-7 -85 8 -37 20 -43 32 -16 32 45 -1 72 4 72 12 0 4 -12 6 -27 4 -22 -4 -25
-2 -13 6 19 13 15 13 -50 1 -41 -8 -56 -7 -72 4 -20 14 -19 15 16 21 20 4 36
12 36 17 0 6 -6 8 -14 5 -40 -15 -102 -17 -120 -4 -18 13 -17 15 17 21 21 4
37 11 37 15 0 5 -21 4 -47 -1 -38 -9 -51 -7 -75 7 -23 13 -32 14 -43 5 -11 -9
-15 -9 -15 -1 0 6 6 11 13 11 6 0 3 7 -8 16 -11 8 -19 24 -17 35 3 17 -1 19
-36 13 -27 -4 -49 -1 -70 10 -17 9 -44 16 -59 16 -26 -1 -27 -1 -8 -13z m53
-36 c17 -10 -16 -21 -65 -21 -33 0 -52 15 -31 23 21 9 82 7 96 -2z m92 -17 c0
-14 -3 -14 -15 -4 -8 7 -15 14 -15 16 0 2 7 4 15 4 8 0 15 -7 15 -16z m-189
-21 c13 -16 12 -17 -3 -4 -10 7 -18 15 -18 17 0 8 8 3 21 -13z m165 2 c17 -13
13 -14 -48 -15 -40 0 -70 5 -74 11 -5 8 1 10 20 7 14 -3 26 -1 26 3 0 15 55
10 76 -6z m48 -34 c6 -9 -91 -21 -111 -14 -7 3 -13 9 -13 14 0 12 117 12 124
0z m31 -42 c-39 -7 -39 -7 10 -6 28 0 61 -4 75 -8 l25 -9 -25 -7 c-44 -12
-108 -10 -123 6 -8 7 -26 17 -41 21 -14 3 -26 10 -26 15 0 12 102 16 125 4 17
-8 15 -11 -20 -16z m-146 -8 c17 -11 -6 -19 -64 -22 -59 -4 -82 14 -30 22 62
9 79 9 94 0z m56 -34 c16 -12 12 -15 -38 -20 -58 -7 -87 -2 -87 15 0 7 15 8
41 4 26 -4 38 -3 34 4 -9 15 28 12 50 -3z m240 -6 c17 -7 13 -10 -24 -21 -24
-6 -59 -9 -78 -5 -23 4 -33 2 -33 -6 0 -7 -2 -10 -5 -7 -3 3 -3 12 1 21 4 11
21 17 52 20 26 2 52 4 57 4 6 1 19 -2 30 -6z m55 -7 c0 -2 -7 -4 -15 -4 -8 0
-15 4 -15 10 0 5 7 7 15 4 8 -4 15 -8 15 -10z m-245 -18 c17 -12 13 -14 -43
-21 -79 -9 -105 5 -37 21 28 7 53 13 56 13 3 1 14 -5 24 -13z m285 -2 c0 -8
-4 -12 -10 -9 -5 3 -10 10 -10 16 0 5 5 9 10 9 6 0 10 -7 10 -16z m-30 -13 c0
-8 -69 -21 -111 -21 -38 0 -18 19 24 23 81 7 87 7 87 -2z m55 -1 c3 -5 1 -10
-4 -10 -6 0 -11 5 -11 10 0 6 2 10 4 10 3 0 8 -4 11 -10z m-232 -29 c6 -6 -12
-13 -46 -21 -44 -9 -60 -8 -76 2 -12 7 -21 16 -21 20 0 18 125 17 143 -1z
m-173 -1 c8 -5 12 -11 9 -14 -3 -3 -14 1 -25 9 -21 16 -8 20 16 5z m398 4 c35
-10 26 -21 -22 -28 -46 -7 -96 0 -96 14 0 5 17 11 38 13 20 2 42 4 47 5 6 1
20 -1 33 -4z m-132 -35 c4 -8 1 -8 -14 0 -12 6 -24 16 -28 22 -4 8 -1 8 14 0
12 -6 24 -16 28 -22z m-37 -3 c23 -13 23 -14 5 -19 -69 -19 -134 -18 -134 3 0
6 48 20 100 28 3 1 16 -5 29 -12z m-165 -22 c7 -19 2 -18 -19 6 -16 17 -16 20
-3 15 9 -4 19 -13 22 -21z m256 -5 c0 -6 -7 -8 -16 -5 -9 3 -18 6 -20 6 -2 0
-4 7 -4 15 0 13 4 14 20 5 11 -6 20 -16 20 -21z m175 7 l40 -24 -40 -7 c-22
-3 -49 -8 -60 -10 -11 -2 -29 3 -39 11 -23 17 -36 18 -36 4 0 -6 16 -18 35
-27 62 -30 39 -58 -58 -69 -36 -4 -57 -3 -61 5 -4 6 -12 11 -18 11 -6 0 -1
-11 11 -24 30 -31 24 -52 -7 -30 -16 11 -22 24 -20 42 3 24 10 29 56 39 45 11
58 11 82 -2 34 -17 40 -18 40 -6 0 5 -15 16 -34 25 -28 13 -35 22 -34 46 1 25
6 30 32 33 63 8 72 6 111 -17z m-451 -15 c7 -11 -113 -24 -139 -15 -18 7 -18
5 3 -18 34 -37 27 -52 -12 -23 -13 10 -17 21 -12 39 5 21 13 26 39 27 17 1 43
4 57 8 25 8 54 -1 64 -18z m516 9 c0 -5 -4 -10 -9 -10 -6 0 -13 5 -16 10 -3 6
1 10 9 10 9 0 16 -4 16 -10z m-240 -41 c0 -4 -21 -11 -47 -16 -37 -7 -56 -6
-80 6 -18 8 -33 18 -33 21 0 4 24 11 53 17 41 7 58 6 80 -6 15 -8 27 -18 27
-22z m17 19 c-3 -8 -6 -5 -6 6 -1 11 2 17 5 13 3 -3 4 -12 1 -19z m-223 -1
c11 -8 17 -18 15 -23 -2 -5 -15 1 -28 14 -26 24 -16 30 13 9z m486 3 c0 -5 -4
-10 -10 -10 -5 0 -10 5 -10 10 0 6 5 10 10 10 6 0 10 -4 10 -10z m-515 -22
c33 -15 32 -25 -4 -33 -51 -11 -88 -8 -111 8 -22 16 -22 16 16 22 22 4 44 8
49 10 18 6 24 5 50 -7z m516 -14 c39 -19 32 -26 -34 -35 -39 -5 -59 -3 -79 9
-34 20 -35 29 -5 35 48 9 89 6 118 -9z m49 0 c0 -8 -4 -12 -10 -9 -5 3 -10 10
-10 16 0 5 5 9 10 9 6 0 10 -7 10 -16z m40 -10 c44 -11 70 -31 70 -54 l0 -25
-18 21 c-9 12 -32 30 -49 40 -18 10 -33 22 -33 27 0 4 6 5 13 0 6 -4 14 -8 17
-9z m-495 -10 c26 -17 33 -34 13 -34 -14 0 -48 30 -48 42 0 12 8 10 35 -8z
m-214 -22 c25 -24 27 -29 12 -29 -22 0 -53 25 -53 44 0 19 7 16 41 -15z m174
2 c14 -9 25 -20 25 -24 0 -15 -109 -23 -125 -10 -9 7 -19 10 -23 6 -4 -4 1
-13 11 -20 9 -7 17 -21 17 -30 0 -10 5 -14 10 -11 16 10 80 -34 80 -56 0 -28
-16 -23 -40 11 -16 23 -25 28 -35 20 -14 -11 -21 -4 -44 41 -21 42 -7 64 47
76 26 6 48 11 50 12 1 0 14 -6 27 -15z m336 -17 c3 -5 9 -8 13 -7 4 0 34 -16
68 -37 34 -21 64 -38 67 -38 15 0 100 -62 101 -72 0 -7 7 -13 15 -13 8 0 15
-7 15 -15 0 -8 -4 -15 -10 -15 -5 0 -10 4 -10 10 0 5 -3 9 -7 8 -18 -4 -73 38
-73 56 0 11 -5 16 -14 13 -7 -3 -19 0 -25 6 -6 6 -11 8 -11 4 0 -8 -15 3 -53
38 -12 11 -25 19 -29 18 -5 -2 -8 2 -8 8 0 8 -5 8 -15 -1 -8 -7 -42 -18 -74
-25 -51 -10 -62 -10 -85 4 -14 9 -26 18 -26 22 0 3 24 11 54 18 47 10 59 10
86 -4 42 -22 52 -11 11 12 -17 10 -31 24 -31 32 0 11 3 11 18 0 9 -8 20 -18
23 -22z m214 -4 c19 -9 35 -20 35 -24 0 -4 -26 -12 -57 -17 -51 -9 -62 -8 -90
10 -52 31 -42 39 54 46 12 1 38 -6 58 -15z m132 -28 c18 -11 33 -26 33 -33 0
-7 -20 1 -50 20 -77 51 -62 61 17 13z m-833 -19 l29 -24 -52 -11 c-67 -14 -64
-15 -96 11 l-28 22 54 12 c30 6 56 12 59 12 3 1 18 -9 34 -22z m244 2 l36 -22
-62 -14 c-59 -13 -62 -12 -92 10 l-32 23 44 11 c61 17 67 16 106 -8z m59 -20
c-3 -8 -6 -5 -6 6 -1 11 2 17 5 13 3 -3 4 -12 1 -19z m518 0 c19 -13 35 -26
35 -29 0 -7 -62 -19 -103 -19 -28 0 -77 26 -77 40 0 8 61 27 93 29 9 1 33 -9
52 -21z m-447 -28 c41 -39 24 -55 -19 -17 -32 29 -47 62 -21 48 9 -5 27 -19
40 -31z m537 13 c11 -7 43 -25 70 -39 124 -66 146 -75 168 -68 20 6 21 5 7
-11 -9 -11 -10 -16 -2 -11 8 5 12 0 12 -13 0 -26 -14 -27 -32 -3 -7 9 -17 17
-23 17 -18 1 -85 38 -85 47 0 5 -5 6 -10 3 -6 -3 -13 0 -16 9 -3 8 -11 13 -18
10 -7 -3 -19 2 -26 11 -7 8 -18 15 -24 15 -17 1 -56 37 -56 52 0 8 3 9 8 3 4
-5 16 -16 27 -22z m-342 -10 l42 -27 -64 -13 c-60 -12 -66 -12 -97 8 -19 11
-34 24 -34 29 0 8 62 26 98 29 7 1 31 -11 55 -26z m-533 -9 c0 -8 -5 -12 -10
-9 -6 4 -8 11 -5 16 9 14 15 11 15 -7z m287 -5 c19 -12 32 -23 30 -26 -3 -2
-30 -10 -60 -17 -53 -12 -57 -12 -84 10 -15 12 -26 24 -23 27 3 2 25 9 50 14
25 6 47 11 49 12 2 0 19 -9 38 -20z m617 -37 l45 -29 -50 -11 c-28 -7 -59 -12
-70 -12 -22 0 -81 34 -80 46 0 8 67 31 98 33 7 1 32 -12 57 -27z m-805 -21
l53 -40 -39 -10 c-57 -16 -78 -14 -110 13 -15 12 -38 28 -50 35 -44 23 -23 37
58 40 27 1 48 -8 88 -38z m311 19 c14 -11 31 -20 38 -20 6 0 12 -4 12 -9 0 -5
3 -16 6 -25 3 -9 1 -16 -5 -16 -6 0 -11 7 -11 15 0 12 -4 11 -19 -4 -12 -12
-41 -22 -76 -26 -48 -6 -61 -4 -83 12 -40 30 -37 38 20 50 49 10 56 10 89 -13
19 -13 38 -24 42 -24 13 0 -6 29 -23 35 -10 3 -20 15 -23 25 -6 25 1 25 33 0z
m-220 -46 c0 -8 6 -11 15 -8 10 4 15 0 15 -16 0 -14 -4 -19 -12 -13 -7 4 -20
6 -28 5 -16 -2 -40 40 -40 72 0 18 1 18 25 -4 14 -13 25 -29 25 -36z m479 1
c1 -5 -22 -15 -51 -21 -48 -10 -57 -9 -90 10 -21 11 -38 26 -38 31 -1 6 23 15
52 21 47 10 57 9 89 -10 20 -12 37 -25 38 -31z m164 -43 c20 -18 50 -36 94
-56 41 -20 63 -43 63 -66 0 -18 -2 -18 -42 3 -23 12 -61 41 -84 64 -23 23 -45
39 -48 36 -3 -4 -14 1 -23 9 -10 8 -26 18 -35 21 -10 4 -18 16 -18 28 l0 21
38 -23 c20 -12 45 -29 55 -37z m208 14 c33 -18 57 -36 52 -39 -4 -2 -37 -10
-73 -17 -64 -12 -66 -12 -112 16 -26 16 -46 33 -44 39 2 8 72 32 103 34 7 1
40 -14 74 -33z m-491 -36 c0 -13 1 -13 10 0 7 12 12 7 24 -20 8 -19 15 -29 16
-22 0 8 18 1 47 -19 25 -18 52 -32 60 -32 7 0 13 -6 13 -13 0 -7 30 -31 66
-54 45 -29 64 -46 60 -56 -3 -8 -2 -12 3 -9 5 3 12 1 15 -4 4 -5 2 -12 -3 -16
-6 -3 -7 -13 -4 -22 5 -13 0 -11 -17 5 -14 13 -48 39 -77 59 -29 20 -53 42
-53 49 0 8 -17 22 -38 33 -21 10 -56 36 -79 58 -23 21 -47 39 -53 41 -30 7
-60 36 -60 58 l0 24 35 -22 c19 -13 35 -30 35 -38z m-274 10 c18 -16 35 -26
38 -23 3 4 6 -7 6 -23 0 -22 -3 -26 -10 -14 -6 10 -10 11 -10 3 0 -19 -20 -16
-27 5 -4 9 -15 23 -25 30 -17 13 -26 52 -10 52 4 0 21 -13 38 -30z m495 -6
c32 -20 57 -40 54 -44 -2 -4 -32 -13 -65 -19 -61 -12 -62 -12 -111 19 -64 42
-64 54 5 71 51 12 56 11 117 -27z m442 -16 c45 -22 57 -32 57 -50 -1 -21 -2
-22 -14 -6 -7 10 -16 15 -19 12 -9 -10 -97 47 -97 63 0 8 3 13 8 11 4 -2 33
-16 65 -30z m-986 0 c18 -13 33 -26 33 -29 0 -4 -24 -11 -52 -17 -48 -10 -56
-8 -85 11 -18 12 -33 25 -33 29 0 4 17 10 38 13 20 4 42 8 47 10 6 2 12 4 14
4 3 1 20 -9 38 -21z m280 -14 c27 -20 49 -40 51 -44 2 -5 -22 -12 -53 -15 -60
-8 -118 10 -150 45 -18 20 -12 26 33 40 50 15 72 10 119 -26z m669 -26 c35
-18 64 -36 64 -40 0 -4 -17 -12 -37 -17 -90 -22 -96 -22 -146 10 -27 16 -47
35 -44 42 3 9 33 20 96 36 2 1 33 -14 67 -31z m155 -35 c28 -18 52 -26 79 -25
37 2 39 0 46 -33 7 -39 -1 -69 -16 -60 -6 4 -8 10 -5 14 7 12 -35 45 -92 70
-29 13 -54 32 -56 42 -7 24 -4 24 44 -8z m-446 7 c4 -6 25 -20 47 -31 22 -11
36 -24 32 -28 -5 -4 -35 -13 -67 -20 -55 -12 -60 -11 -102 13 -68 40 -67 53 5
67 53 10 78 10 85 -1z m-541 -33 l39 -34 -61 -13 c-65 -13 -66 -13 -126 35
-24 19 -20 23 35 34 68 14 71 13 113 -22z m284 -5 c15 -10 35 -22 45 -25 29
-11 19 -24 -27 -36 -63 -16 -82 -14 -121 12 -42 26 -41 49 0 58 53 12 76 9
103 -9z m438 -8 c24 -14 44 -30 44 -36 0 -5 4 -7 9 -4 9 6 21 -16 21 -40 0
-19 -39 -18 -47 1 -3 9 -23 25 -44 36 -22 11 -39 23 -39 28 0 5 -3 16 -6 25
-9 23 11 20 62 -10z m280 -20 c35 -20 66 -40 69 -44 6 -10 -48 -27 -110 -36
-33 -4 -49 0 -94 28 -30 18 -56 38 -58 44 -3 10 78 40 115 43 8 0 43 -15 78
-35z m-299 -45 c51 -35 48 -41 -31 -60 -45 -11 -53 -10 -93 12 -23 13 -43 29
-43 36 0 10 74 39 108 42 7 1 34 -13 59 -30z m244 -63 c22 0 39 -4 39 -7 0 -4
3 -21 6 -38 6 -27 4 -31 -15 -31 -11 0 -21 5 -21 10 0 7 -6 8 -17 2 -13 -8
-21 -4 -36 14 -10 14 -36 34 -58 44 -40 21 -43 27 -33 54 5 13 13 10 51 -16
30 -20 58 -31 84 -32z m-503 10 c23 -16 42 -32 42 -37 0 -8 -88 -29 -124 -29
-23 0 -106 55 -106 70 0 11 122 39 135 31 6 -3 29 -19 53 -35z m-314 -4 c22
-21 52 -45 65 -55 32 -22 23 -30 -51 -43 l-59 -11 -62 50 c-34 27 -62 54 -62
60 0 9 67 29 119 36 5 0 27 -16 50 -37z m1088 -20 c72 -40 100 -73 76 -89 -7
-3 -8 -1 -4 5 9 16 -4 15 -76 -3 l-59 -16 -72 44 c-40 24 -72 50 -72 57 0 11
107 51 125 46 3 0 40 -20 82 -44z m-376 -14 c29 -18 54 -39 54 -45 0 -7 -2
-13 -5 -13 -2 0 -30 -7 -61 -15 -56 -14 -58 -14 -105 12 -62 33 -64 56 -6 76
60 21 63 20 123 -15z m-968 -19 c33 -30 48 -37 37 -19 -3 6 1 10 10 10 9 0 19
9 22 21 5 19 7 19 37 -9 17 -16 48 -41 68 -56 36 -27 39 -27 95 -16 32 7 63
16 70 22 8 6 15 3 23 -11 9 -19 8 -21 -14 -21 -31 0 -78 -18 -88 -33 -4 -7 -8
-24 -8 -38 0 -50 -26 -40 -101 38 -59 61 -75 72 -83 61 -10 -14 -137 -48 -177
-48 -21 0 -91 69 -86 85 2 5 26 16 53 24 27 7 50 17 52 21 6 14 58 -4 90 -31z
m712 -59 c48 -43 49 -41 -37 -60 -51 -12 -53 -11 -98 21 -52 37 -57 56 -17 65
15 3 32 7 37 9 37 12 73 1 115 -35z m-970 20 c0 -5 -4 -10 -10 -10 -5 0 -10 5
-10 10 0 6 5 10 10 10 6 0 10 -4 10 -10z m1396 -42 c30 -19 53 -39 51 -47 -1
-9 -27 -19 -71 -28 l-69 -14 -46 28 c-25 16 -46 35 -46 43 0 12 81 47 113 49
8 1 38 -14 68 -31z m439 -10 c41 -24 75 -49 75 -55 0 -7 -12 -15 -27 -19 -16
-3 -49 -12 -76 -21 l-47 -15 -66 37 c-44 25 -64 42 -62 53 3 13 94 60 121 62
4 0 41 -19 82 -42z m86 -81 c-10 -9 -11 -8 -5 6 3 10 9 15 12 12 3 -3 0 -11
-7 -18z"/>
<path d="M630 890 c0 -6 7 -10 15 -10 8 0 15 2 15 4 0 2 -7 6 -15 10 -8 3 -15
1 -15 -4z"/>
<path d="M598 873 c7 -3 16 -2 19 1 4 3 -2 6 -13 5 -11 0 -14 -3 -6 -6z"/>
<path d="M493 792 c-8 -5 1 -8 22 -8 19 0 35 4 35 8 0 10 -41 10 -57 0z"/>
<path d="M435 850 c28 -12 47 -12 40 0 -3 6 -18 10 -33 9 -24 0 -25 -1 -7 -9z"/>
<path d="M395 840 c3 -5 8 -10 11 -10 2 0 4 5 4 10 0 6 -5 10 -11 10 -5 0 -7
-4 -4 -10z"/>
<path d="M213 823 c9 -2 25 -2 35 0 9 3 1 5 -18 5 -19 0 -27 -2 -17 -5z"/>
<path d="M738 823 c6 -2 9 -10 6 -15 -4 -7 -2 -8 5 -4 13 9 5 26 -12 25 -9 0
-8 -2 1 -6z"/>
<path d="M695 810 c-3 -6 1 -7 9 -4 18 7 21 14 7 14 -6 0 -13 -4 -16 -10z"/>
<path d="M570 730 c-24 -15 -8 -17 30 -4 30 11 32 13 10 13 -14 1 -32 -3 -40
-9z"/>
<path d="M832 758 c5 -15 28 -23 28 -10 0 5 -7 13 -16 16 -10 4 -14 1 -12 -6z"/>
<path d="M785 750 c-3 -5 -2 -10 4 -10 5 0 13 5 16 10 3 6 2 10 -4 10 -5 0
-13 -4 -16 -10z"/>
<path d="M98 703 c6 -2 18 -2 25 0 6 3 1 5 -13 5 -14 0 -19 -2 -12 -5z"/>
<path d="M354 698 c-7 -11 37 -10 56 2 10 6 5 9 -18 8 -18 -1 -35 -5 -38 -10z"/>
<path d="M927 678 c2 -5 13 -8 24 -8 10 0 19 3 19 8 0 4 -11 7 -24 7 -13 0
-22 -3 -19 -7z"/>
<path d="M705 671 c20 -8 20 -8 0 -13 -19 -5 -18 -6 2 -7 12 0 24 3 27 8 6 9
-17 22 -37 20 -7 0 -3 -4 8 -8z"/>
<path d="M650 666 c0 -2 7 -9 15 -16 12 -10 15 -10 15 4 0 9 -7 16 -15 16 -8
0 -15 -2 -15 -4z"/>
<path d="M454 645 c-12 -8 -25 -11 -29 -7 -5 4 -5 2 -2 -4 5 -8 19 -9 43 -4
41 10 50 15 35 25 -6 3 -11 1 -11 -4 0 -6 -5 -11 -11 -11 -5 0 -7 5 -4 10 8
14 3 13 -21 -5z"/>
<path d="M1025 610 c-7 -12 2 -12 30 0 19 8 19 9 -2 9 -12 1 -25 -3 -28 -9z"/>
<path d="M210 610 c-11 -7 -5 -8 20 -4 43 8 51 14 19 14 -13 0 -31 -5 -39 -10z"/>
<path d="M275 584 c-13 -10 -15 -14 -4 -14 20 0 43 16 32 23 -4 3 -17 -1 -28
-9z"/>
<path d="M535 576 c-24 -11 -27 -15 -14 -20 9 -4 32 -3 50 2 29 9 31 10 9 11
-20 1 -22 3 -10 11 22 14 0 11 -35 -4z m22 -12 c-3 -3 -12 -4 -19 -1 -8 3 -5
6 6 6 11 1 17 -2 13 -5z"/>
<path d="M798 596 c-16 -5 -28 -13 -28 -18 0 -11 18 -10 25 2 3 6 14 10 23 10
15 0 15 -2 2 -10 -13 -8 -13 -10 1 -10 20 0 33 27 16 32 -7 3 -24 0 -39 -6z"/>
<path d="M1178 553 c-19 -5 -22 -12 -10 -29 11 -16 42 -25 39 -12 -1 7 7 13
18 15 17 3 18 2 5 -7 -13 -9 -12 -11 3 -8 32 5 13 23 -23 21 -33 -2 -34 -1
-16 12 20 15 16 17 -16 8z"/>
<path d="M961 354 c0 -11 3 -14 6 -6 3 7 2 16 -1 19 -3 4 -6 -2 -5 -13z"/>
<path d="M892 512 c-39 -12 5 -31 46 -20 29 8 45 28 22 28 -5 0 -10 -4 -10
-10 0 -5 -10 -10 -22 -9 -22 0 -22 1 -3 9 24 10 1 11 -33 2z"/>
<path d="M383 478 c15 -10 67 -10 67 0 0 4 -18 7 -40 7 -23 1 -34 -2 -27 -7z"/>
<path d="M638 493 c6 -2 18 -2 25 0 6 3 1 5 -13 5 -14 0 -19 -2 -12 -5z"/>
<path d="M660 465 c-25 -15 -25 -15 14 -13 22 2 41 9 44 16 5 16 -27 15 -58
-3z m47 -1 c-3 -3 -12 -4 -19 -1 -8 3 -5 6 6 6 11 1 17 -2 13 -5z"/>
<path d="M1330 453 c-8 -2 -21 -7 -29 -9 -8 -2 -12 -7 -9 -9 3 -3 22 1 44 9
35 13 30 21 -6 9z"/>
<path d="M1338 413 c7 -3 16 -2 19 1 4 3 -2 6 -13 5 -11 0 -14 -3 -6 -6z"/>
<path d="M1037 403 c-9 -2 -15 -9 -11 -14 4 -6 11 -6 20 2 8 6 25 8 39 5 14
-4 25 -2 25 4 0 10 -39 12 -73 3z"/>
<path d="M508 393 c6 -2 18 -2 25 0 6 3 1 5 -13 5 -14 0 -19 -2 -12 -5z"/>
<path d="M1438 353 c7 -3 16 -2 19 1 4 3 -2 6 -13 5 -11 0 -14 -3 -6 -6z"/>
<path d="M1500 350 c0 -5 5 -10 11 -10 5 0 7 5 4 10 -3 6 -8 10 -11 10 -2 0
-4 -4 -4 -10z"/>
<path d="M1468 333 c7 -3 16 -2 19 1 4 3 -2 6 -13 5 -11 0 -14 -3 -6 -6z"/>
<path d="M1515 320 c-13 -5 -14 -9 -5 -9 8 0 24 4 35 9 13 5 14 9 5 9 -8 0
-24 -4 -35 -9z"/>
<path d="M1196 297 c3 -9 14 -12 30 -9 29 5 28 7 -8 16 -21 5 -26 3 -22 -7z"/>
<path d="M908 263 c7 -3 16 -2 19 1 4 3 -2 6 -13 5 -11 0 -14 -3 -6 -6z"/>
<path d="M936 245 c-11 -8 -15 -15 -9 -15 19 0 43 12 43 21 0 13 -12 11 -34
-6z"/>
<path d="M590 235 c16 -19 49 -19 74 0 19 15 19 15 -3 15 -12 0 -19 -4 -16
-10 4 -6 -5 -10 -19 -10 -14 0 -26 5 -26 10 0 6 -5 10 -11 10 -8 0 -8 -5 1
-15z"/>
<path d="M680 220 c0 -5 5 -10 10 -10 6 0 10 5 10 10 0 6 -4 10 -10 10 -5 0
-10 -4 -10 -10z"/>
<path d="M1697 223 c-13 -12 -7 -26 6 -15 6 5 23 12 37 15 22 4 21 4 -6 6 -17
0 -34 -2 -37 -6z"/>
<path d="M1715 190 c-3 -5 -2 -10 4 -10 5 0 13 5 16 10 3 6 2 10 -4 10 -5 0
-13 -4 -16 -10z"/>
<path d="M1350 190 c0 -5 7 -10 16 -10 8 0 12 5 9 10 -3 6 -10 10 -16 10 -5 0
-9 -4 -9 -10z"/>
<path d="M363 185 c0 -8 4 -12 8 -10 4 3 9 -2 13 -10 3 -8 10 -15 15 -15 7 0
6 9 -1 25 -12 27 -35 34 -35 10z"/>
<path d="M535 190 c3 -5 8 -10 11 -10 2 0 4 5 4 10 0 6 -5 10 -11 10 -5 0 -7
-4 -4 -10z"/>
<path d="M1065 141 c-6 -11 9 -23 19 -14 9 9 7 23 -3 23 -6 0 -12 -4 -16 -9z"/>
<path d="M1495 100 c-7 -12 12 -12 40 0 18 8 17 9 -7 9 -15 1 -30 -3 -33 -9z"/>
<path d="M1910 80 c-8 -5 -10 -10 -5 -10 6 0 17 5 25 10 8 5 11 10 5 10 -5 0
-17 -5 -25 -10z"/>
<path d="M1955 70 c-16 -7 -17 -9 -3 -9 9 -1 20 4 23 9 7 11 7 11 -20 0z"/>
<path d="M1313 1183 c9 -2 23 -2 30 0 6 3 -1 5 -18 5 -16 0 -22 -2 -12 -5z"/>
<path d="M1368 1173 c7 -3 16 -2 19 1 4 3 -2 6 -13 5 -11 0 -14 -3 -6 -6z"/>
<path d="M338 1153 c7 -3 16 -2 19 1 4 3 -2 6 -13 5 -11 0 -14 -3 -6 -6z"/>
<path d="M1717 1135 c-18 -25 -18 -25 5 -34 13 -4 47 -14 77 -22 39 -10 55
-19 62 -36 9 -25 -5 -26 179 13 100 21 107 21 144 5 l40 -17 -135 -28 c-74
-15 -150 -34 -171 -41 -28 -9 -35 -9 -32 0 5 13 -25 50 -33 41 -2 -2 8 -28 23
-58 16 -29 28 -57 29 -63 0 -5 8 -11 18 -13 16 -3 378 77 442 98 59 20 -54 0
-238 -40 -98 -22 -184 -40 -191 -40 -6 0 -17 14 -23 30 -6 17 -10 30 -8 30 2
0 72 16 155 35 171 40 189 41 231 19 17 -8 36 -13 42 -11 7 2 -42 30 -108 62
-66 31 -128 61 -137 67 -10 5 -18 6 -18 4 0 -3 12 -12 28 -20 23 -13 25 -15 9
-21 -9 -4 -28 -5 -42 -3 -13 3 -22 1 -19 -3 6 -10 3 -10 -36 -15 -14 -2 -45
-8 -69 -14 -33 -8 -47 -8 -59 2 -13 11 -9 14 24 21 21 4 45 8 52 9 6 1 12 4
12 8 0 4 -22 5 -50 2 -27 -2 -50 0 -50 5 0 5 13 10 29 11 17 1 40 6 53 12 17
6 9 7 -27 3 -52 -6 -79 -19 -69 -34 8 -14 -27 -11 -78 7 -37 12 -45 19 -41 35
7 25 2 24 -20 -6z"/>
<path d="M395 1140 l-30 -8 27 -1 c15 0 30 4 33 9 3 6 5 9 3 9 -2 -1 -16 -5
-33 -9z"/>
<path d="M1350 1100 c8 -5 20 -10 25 -10 6 0 3 5 -5 10 -8 5 -19 10 -25 10 -5
0 -3 -5 5 -10z"/>
<path d="M1411 1076 c10 -9 69 -36 69 -32 0 6 -55 36 -66 36 -4 0 -5 -2 -3 -4z"/>
<path d="M1753 1069 c10 -6 30 -13 45 -15 14 -3 33 -11 41 -17 11 -10 13 -9
10 2 -3 8 -25 20 -50 27 -53 16 -71 17 -46 3z"/>
<path d="M651 991 c-7 -5 -9 -11 -5 -14 5 -3 15 1 22 9 14 16 5 18 -17 5z"/>
<path d="M1145 960 c-3 -5 -1 -10 4 -10 6 0 11 5 11 10 0 6 -2 10 -4 10 -3 0
-8 -4 -11 -10z"/>
<path d="M80 931 c0 -9 30 -24 36 -18 2 1 -6 8 -16 15 -11 7 -20 8 -20 3z"/>
<path d="M735 930 c4 -6 11 -8 16 -5 14 9 11 15 -7 15 -8 0 -12 -5 -9 -10z"/>
<path d="M1190 936 c0 -2 7 -7 16 -10 8 -3 12 -2 9 4 -6 10 -25 14 -25 6z"/>
<path d="M40 920 c0 -5 4 -10 9 -10 6 0 13 5 16 10 3 6 -1 10 -9 10 -9 0 -16
-4 -16 -10z"/>
<path d="M1237 909 c7 -7 15 -10 18 -7 3 3 -2 9 -12 12 -14 6 -15 5 -6 -5z"/>
<path d="M834 879 c-7 -11 27 -11 45 0 9 6 5 9 -13 9 -15 0 -29 -4 -32 -9z"/>
<path d="M1200 874 c-24 -13 -22 -13 27 -11 51 2 58 10 18 20 -11 3 -31 -1
-45 -9z"/>
<path d="M1291 886 c11 -11 192 -97 196 -93 2 2 -30 21 -71 41 -79 38 -134 61
-125 52z"/>
<path d="M950 830 c0 -5 5 -10 11 -10 5 0 7 5 4 10 -3 6 -8 10 -11 10 -2 0 -4
-4 -4 -10z"/>
<path d="M1728 803 c12 -2 30 -2 40 0 9 3 -1 5 -23 4 -22 0 -30 -2 -17 -4z"/>
<path d="M1668 793 c6 -2 18 -2 25 0 6 3 1 5 -13 5 -14 0 -19 -2 -12 -5z"/>
<path d="M2180 780 c-8 -5 -10 -10 -5 -10 6 0 17 5 25 10 8 5 11 10 5 10 -5 0
-17 -5 -25 -10z"/>
<path d="M1068 763 c7 -3 16 -2 19 1 4 3 -2 6 -13 5 -11 0 -14 -3 -6 -6z"/>
<path d="M1435 763 c-25 -6 -47 -26 -25 -23 30 4 61 0 56 -8 -3 -4 15 -3 40 2
39 9 41 12 22 19 -26 9 -34 9 -31 -3 1 -4 -10 -5 -25 -2 -24 5 -25 6 -7 13 22
8 2 10 -30 2z"/>
<path d="M1727 758 c5 -10 52 -9 77 1 13 5 1 7 -31 7 -28 -1 -49 -4 -46 -8z"/>
<path d="M1817 750 c-20 -4 -40 -10 -44 -13 -8 -9 4 -8 52 3 37 8 39 8 20 -7
-18 -14 -18 -15 -2 -9 10 3 26 6 34 6 13 0 13 3 3 15 -7 8 -15 14 -19 14 -3
-1 -23 -5 -44 -9z"/>
<path d="M2125 730 c-3 -4 -4 -20 -3 -35 2 -26 18 -36 198 -123 306 -148 548
-261 573 -267 28 -8 99 16 105 34 4 10 0 12 -14 6 -11 -4 -37 -9 -59 -12 -45
-5 -106 20 -470 197 -115 56 -229 110 -251 120 -45 20 -65 40 -40 40 9 0 71
-23 138 -51 68 -28 132 -53 143 -57 11 -3 33 -16 48 -29 16 -12 35 -23 43 -23
9 0 12 -5 8 -12 -4 -6 -3 -8 3 -5 5 3 22 -1 37 -9 16 -7 36 -14 45 -14 9 0 21
-4 27 -8 5 -4 54 -28 109 -52 55 -24 106 -50 114 -58 7 -7 18 -11 25 -8 6 3
30 10 54 17 25 7 42 17 42 26 0 8 -6 13 -12 10 -87 -32 -75 -33 -203 25 -66
30 -161 72 -212 93 -51 21 -90 42 -88 45 2 4 29 13 60 20 30 7 55 18 55 23 0
5 -10 6 -22 3 -112 -32 -105 -32 -238 24 -69 29 -144 60 -167 70 -24 10 -45
15 -48 10z"/>
<path d="M1162 711 c-11 -6 -10 -10 4 -15 9 -3 19 -4 22 -1 3 3 -1 5 -9 6 -8
0 -6 4 6 9 13 6 15 9 5 9 -8 0 -21 -3 -28 -8z"/>
<path d="M2305 704 c-29 -13 -28 -13 22 -10 46 2 83 14 57 17 -38 6 -53 4 -79
-7z"/>
<path d="M2365 680 c-11 -5 -18 -9 -15 -10 40 -12 90 -7 90 9 0 10 -49 11 -75
1z m42 -6 c-3 -3 -12 -4 -19 -1 -8 3 -5 6 6 6 11 1 17 -2 13 -5z"/>
<path d="M1298 623 c6 -2 18 -2 25 0 6 3 1 5 -13 5 -14 0 -19 -2 -12 -5z"/>
<path d="M2666 561 c5 -5 18 -11 29 -14 12 -3 7 -5 -14 -6 -22 -1 -32 -4 -25
-11 6 -6 25 -5 53 2 l43 11 -39 13 c-45 16 -61 18 -47 5z"/>
<path d="M1434 552 c9 -14 58 -22 53 -8 -2 6 -16 12 -31 14 -16 2 -26 -1 -22
-6z"/>
<path d="M2733 523 c-13 -2 -23 -8 -23 -13 0 -10 29 -11 75 -3 26 5 28 7 10
14 -22 8 -28 9 -62 2z"/>
<path d="M2800 495 c-23 -9 -28 -14 -15 -14 11 0 34 6 50 14 39 17 11 18 -35
0z"/>
<path d="M2831 479 c-13 -5 -21 -12 -17 -16 3 -3 17 -1 30 7 14 7 32 10 40 7
9 -4 16 -2 16 3 0 12 -37 12 -69 -1z"/>
<path d="M1623 463 c-13 -2 -23 -9 -23 -14 0 -10 32 -4 60 12 13 7 13 8 0 7
-8 0 -25 -3 -37 -5z"/>
<path d="M1785 380 c-20 -9 -20 -9 0 -9 11 0 27 4 35 9 13 9 13 10 0 9 -8 0
-24 -4 -35 -9z"/>
<path d="M233 313 c-3 -10 -8 -21 -10 -25 -2 -5 2 -8 10 -8 10 0 13 7 10 19
-3 13 1 21 14 24 17 4 17 5 0 6 -10 0 -20 -7 -24 -16z"/>
<path d="M280 300 c0 -5 5 -10 11 -10 5 0 7 5 4 10 -3 6 -8 10 -11 10 -2 0 -4
-4 -4 -10z"/>
<path d="M2810 136 c0 -10 170 -88 182 -83 7 2 -22 20 -64 40 -85 39 -118 51
-118 43z"/>
<path d="M233 123 c-24 -9 -13 -39 30 -81 42 -41 70 -54 65 -30 -3 13 103 56
139 57 13 1 41 -15 63 -35 41 -37 64 -39 42 -4 -6 11 -9 27 -5 36 5 14 3 15
-16 5 -26 -14 -41 -7 -41 21 0 15 -3 18 -12 10 -7 -5 -31 -12 -53 -15 -22 -3
-57 -13 -77 -21 -20 -9 -45 -13 -54 -9 -13 5 -16 3 -11 -10 9 -23 6 -22 -28
15 l-30 33 28 -18 c28 -18 38 -8 12 13 -8 7 -15 19 -15 26 0 14 -14 17 -37 7z"/>
<path d="M2800 88 c0 -32 3 -35 70 -61 38 -15 80 -27 92 -27 17 1 14 4 -14 14
-63 23 -129 66 -126 83 2 9 -3 18 -9 20 -9 3 -13 -6 -13 -29z"/>
<path d="M785 70 c-3 -5 1 -10 9 -10 8 0 18 5 21 10 3 6 -1 10 -9 10 -8 0 -18
-4 -21 -10z"/>
</g>
</svg>
